<svg width="24" height="24" viewBox="0 0 24 24" fill="none" xmlns="http://www.w3.org/2000/svg">
    <path d="M22 11.118C22 6.642 17.515 3 12 3S2 6.642 2 11.118c0 4.008 3.558 7.369 8.361 8.006.328.075.768.215.88.496.104.253.066.646.029.908 0 0-.122.702-.14.852-.048.253-.197.993.87.543 1.067-.45 5.758-3.39 7.856-5.805 1.451-1.592 2.144-3.202 2.144-5z" fill="#000"/>
    <path d="M18.676 13.702a.188.188 0 0 0 .187-.187v-.712a.188.188 0 0 0-.187-.187h-1.91v-.74h1.91a.188.188 0 0 0 .187-.187v-.712a.188.188 0 0 0-.187-.187h-1.91v-.74h1.91a.188.188 0 0 0 .187-.187v-.711a.188.188 0 0 0-.187-.188h-2.809a.188.188 0 0 0-.187.188v4.354c0 .103.084.187.187.187h2.81v.01zM8.283 13.702a.188.188 0 0 0 .187-.187v-.712a.188.188 0 0 0-.187-.187h-1.91V9.152a.188.188 0 0 0-.188-.188h-.711a.188.188 0 0 0-.188.188v4.363c0 .103.085.187.188.187h2.809zM9.968 8.955h-.712a.188.188 0 0 0-.187.187v4.364c0 .103.084.187.187.187h.712a.188.188 0 0 0 .187-.187V9.142c.01-.103-.074-.187-.187-.187zM14.8 8.955h-.712a.188.188 0 0 0-.187.187v2.603L11.906 9.05c0-.01-.009-.01-.018-.019l-.01-.01-.01-.009h-.008l-.01-.01h-.01s-.009 0-.009-.008h-.009s-.01 0-.01-.01H11.037a.188.188 0 0 0-.188.187v4.364c0 .103.084.187.188.187h.711a.188.188 0 0 0 .187-.187V10.94l2.004 2.697c.01.018.028.037.047.046l.01.01h.047c.018 0 .027.01.046.01h.702a.188.188 0 0 0 .188-.188V9.152a.177.177 0 0 0-.178-.197z" fill="#fff"/>
</svg>
