<svg width="24" height="24" viewBox="0 0 24 24" fill="none" xmlns="http://www.w3.org/2000/svg">
    <path fill-rule="evenodd" clip-rule="evenodd" d="M17.887 12.146a.75.75 0 0 1-.103-1.493 2.133 2.133 0 0 0 1.827-2.1 2.115 2.115 0 0 0-1.78-2.093.75.75 0 0 1 .245-1.48 3.611 3.611 0 0 1 3.035 3.576 3.642 3.642 0 0 1-3.12 3.584.737.737 0 0 1-.104.006z" fill="#000"/>
    <mask id="cqo1tsja4a" style="mask-type:alpha" maskUnits="userSpaceOnUse" x="18" y="14" width="5" height="5">
        <path fill-rule="evenodd" clip-rule="evenodd" d="M18.978 14.002h3.794v4.53h-3.794v-4.53z" fill="#fff"/>
    </mask>
    <g mask="url(#cqo1tsja4a)">
        <path fill-rule="evenodd" clip-rule="evenodd" d="M20.861 18.531a.75.75 0 0 1-.267-1.45c.678-.259.678-.544.678-.68 0-.439-.557-.745-1.655-.909a.752.752 0 0 1-.63-.854.755.755 0 0 1 .853-.63c2.423.363 2.932 1.501 2.932 2.392 0 .544-.214 1.537-1.644 2.082a.759.759 0 0 1-.267.05z" fill="#000"/>
    </g>
    <path fill-rule="evenodd" clip-rule="evenodd" d="M11.887 15.914c-2.376 0-5.21.292-5.21 1.682 0 1.401 2.834 1.695 5.21 1.695s5.208-.291 5.208-1.678c0-1.404-2.832-1.699-5.208-1.699zm0 4.877c-1.66 0-6.71 0-6.71-3.195 0-3.182 5.05-3.182 6.71-3.182 1.659 0 6.708 0 6.708 3.199 0 3.178-4.873 3.178-6.708 3.178zM11.887 5.5a3.072 3.072 0 0 0-3.068 3.069c-.003.82.31 1.587.886 2.166.575.579 1.34.9 2.157.903l.025.75v-.75a3.072 3.072 0 0 0 3.069-3.069 3.073 3.073 0 0 0-3.07-3.069zm0 7.638h-.027a4.52 4.52 0 0 1-3.22-1.346A4.518 4.518 0 0 1 7.32 8.566 4.573 4.573 0 0 1 11.887 4c2.52 0 4.569 2.05 4.569 4.569a4.574 4.574 0 0 1-4.57 4.569zM5.886 12.146a.737.737 0 0 1-.104-.007 3.641 3.641 0 0 1-3.12-3.581A3.612 3.612 0 0 1 5.699 4.98a.75.75 0 0 1 .244 1.48 2.116 2.116 0 0 0-1.78 2.096 2.132 2.132 0 0 0 1.827 2.098.75.75 0 0 1-.103 1.492zM2.912 18.531a.759.759 0 0 1-.267-.049C1.215 17.936 1 16.943 1 16.4c0-.89.51-2.029 2.933-2.392a.755.755 0 0 1 .853.63.752.752 0 0 1-.63.854c-1.099.164-1.656.47-1.656.908 0 .137 0 .421.68.68a.75.75 0 0 1-.268 1.451z" fill="#000"/>
</svg>
