<svg width="136" height="40" viewBox="0 0 136 40" fill="none" xmlns="http://www.w3.org/2000/svg">
    <g clip-path="url(#qetag1vb7a)">
        <path d="M130.328 40h-125c-2.8 0-5-2.2-5-5V5c0-2.8 2.2-5 5-5h125c2.8 0 5 2.2 5 5v30c0 2.7-2.2 5-5 5z" fill="#fff"/>
        <path d="M130.328.8c2.3 0 4.2 1.9 4.2 4.2v30c0 2.3-1.9 4.2-4.2 4.2h-125c-2.3 0-4.2-1.9-4.2-4.2V5c0-2.3 1.9-4.2 4.2-4.2h125zm0-.8h-125c-2.8 0-5 2.2-5 5v30c0 2.8 2.2 5 5 5h125c2.8 0 5-2.2 5-5V5c0-2.7-2.2-5-5-5z" fill="#000"/>
        <path d="M47.728 10.2c0 .8-.2 1.5-.7 2-.6.6-1.3.9-2.2.9-.9 0-1.6-.3-2.2-.9-.6-.6-.9-1.3-.9-2.2 0-.9.3-1.6.9-2.2.6-.6 1.3-.9 2.2-.9.4 0 .8.1 1.2.3.4.2.7.4.9.7l-.5.5c-.4-.5-.9-.7-1.6-.7-.6 0-1.2.2-1.6.7-.5.4-.7 1-.7 1.7s.2 1.3.7 1.7c.5.4 1 .7 1.6.7.7 0 1.2-.2 1.7-.7.3-.3.5-.7.5-1.2h-2.2v-.7h2.9v.3zM52.328 7.7h-2.7v1.9h2.5v.7h-2.5v1.9h2.7v.8h-3.5V7h3.5v.7zM55.628 13h-.8V7.7h-1.7V7h4.2v.7h-1.7V13zM60.228 13V7h.8v6h-.8zM64.428 13h-.8V7.7h-1.7V7h4.1v.7h-1.7V13h.1zM73.928 12.2c-.6.6-1.3.9-2.2.9-.9 0-1.6-.3-2.2-.9-.6-.6-.9-1.3-.9-2.2 0-.9.3-1.6.9-2.2.6-.6 1.3-.9 2.2-.9.9 0 1.6.3 2.2.9.6.6.9 1.3.9 2.2 0 .9-.3 1.6-.9 2.2zm-3.8-.5c.4.4 1 .7 1.6.7.6 0 1.2-.2 1.6-.7.4-.4.7-1 .7-1.7s-.2-1.3-.7-1.7c-.4-.4-1-.7-1.6-.7-.6 0-1.2.2-1.6.7-.4.4-.7 1-.7 1.7s.2 1.3.7 1.7zM75.928 13V7h.9l2.9 4.7V7h.8v6h-.8l-3.1-4.9V13h-.7z" fill="#000" stroke="#000" stroke-width=".2" stroke-miterlimit="10"/>
        <path d="M68.428 21.8c-2.4 0-4.3 1.8-4.3 4.3 0 2.4 1.9 4.3 4.3 4.3s4.3-1.8 4.3-4.3c0-2.6-1.9-4.3-4.3-4.3zm0 6.8c-1.3 0-2.4-1.1-2.4-2.6s1.1-2.6 2.4-2.6c1.3 0 2.4 1 2.4 2.6 0 1.5-1.1 2.6-2.4 2.6zm-9.3-6.8c-2.4 0-4.3 1.8-4.3 4.3 0 2.4 1.9 4.3 4.3 4.3s4.3-1.8 4.3-4.3c0-2.6-1.9-4.3-4.3-4.3zm0 6.8c-1.3 0-2.4-1.1-2.4-2.6s1.1-2.6 2.4-2.6c1.3 0 2.4 1 2.4 2.6 0 1.5-1.1 2.6-2.4 2.6zm-11.1-5.5v1.8h4.3c-.1 1-.5 1.8-1 2.3-.6.6-1.6 1.3-3.3 1.3-2.7 0-4.7-2.1-4.7-4.8 0-2.7 2.1-4.8 4.7-4.8 1.4 0 2.5.6 3.3 1.3l1.3-1.3c-1.1-1-2.5-1.8-4.5-1.8-3.6 0-6.7 3-6.7 6.6 0 3.6 3.1 6.6 6.7 6.6 2 0 3.4-.6 4.6-1.9 1.2-1.2 1.6-2.9 1.6-4.2 0-.4 0-.8-.1-1.1h-6.2zm45.4 1.4c-.4-1-1.4-2.7-3.6-2.7s-4 1.7-4 4.3c0 2.4 1.8 4.3 4.2 4.3 1.9 0 3.1-1.2 3.5-1.9l-1.4-1c-.5.7-1.1 1.2-2.1 1.2s-1.6-.4-2.1-1.3l5.7-2.4-.2-.5zm-5.8 1.4c0-1.6 1.3-2.5 2.2-2.5.7 0 1.4.4 1.6.9l-3.8 1.6zm-4.7 4.1h1.9V17.5h-1.9V30zm-3-7.3c-.5-.5-1.3-1-2.3-1-2.1 0-4.1 1.9-4.1 4.3s1.9 4.2 4.1 4.2c1 0 1.8-.5 2.2-1h.1v.6c0 1.6-.9 2.5-2.3 2.5-1.1 0-1.9-.8-2.1-1.5l-1.6.7c.5 1.1 1.7 2.5 3.8 2.5 2.2 0 4-1.3 4-4.4V22h-1.8v.7zm-2.2 5.9c-1.3 0-2.4-1.1-2.4-2.6s1.1-2.6 2.4-2.6c1.3 0 2.3 1.1 2.3 2.6s-1 2.6-2.3 2.6zm24.4-11.1h-4.5V30h1.9v-4.7h2.6c2.1 0 4.1-1.5 4.1-3.9s-2-3.9-4.1-3.9zm.1 6h-2.7v-4.3h2.7c1.4 0 2.2 1.2 2.2 2.1-.1 1.1-.9 2.2-2.2 2.2zm11.5-1.8c-1.4 0-2.8.6-3.3 1.9l1.7.7c.4-.7 1-.9 1.7-.9 1 0 1.9.6 2 1.6v.1c-.3-.2-1.1-.5-1.9-.5-1.8 0-3.6 1-3.6 2.8 0 1.7 1.5 2.8 3.1 2.8 1.3 0 1.9-.6 2.4-1.2h.1v1h1.8v-4.8c-.2-2.2-1.9-3.5-4-3.5zm-.2 6.9c-.6 0-1.5-.3-1.5-1.1 0-1 1.1-1.3 2-1.3.8 0 1.2.2 1.7.4-.2 1.2-1.2 2-2.2 2zm10.5-6.6-2.1 5.4h-.1l-2.2-5.4h-2l3.3 7.6-1.9 4.2h1.9l5.1-11.8h-2zm-16.8 8h1.9V17.5h-1.9V30z" fill="#000"/>
        <path d="M10.728 7.5c-.3.4-.4.8-.4 1.5v22c0 .6.2 1.1.5 1.4l.1.1 12.4-12.4v-.2l-12.6-12.4z" fill="#5AC9F4"/>
        <path d="m27.328 24.3-4.1-4.1V19.9l4.1-4.1.1.1 4.9 2.8c1.4.8 1.4 2.1 0 2.9l-5 2.7z" fill="url(#jl14oh5fdb)"/>
        <path d="m27.428 24.2-4.2-4.2-12.5 12.5c.5.5 1.2.5 2.1.1l14.6-8.4z" fill="url(#kiwmltz7yc)"/>
        <path d="m27.428 15.8-14.6-8.3c-.9-.5-1.6-.4-2.1.1l12.5 12.4 4.2-4.2z" fill="url(#9a3un7vtqd)"/>
    </g>
    <defs>
        <linearGradient id="jl14oh5fdb" x1="31.417" y1="20" x2="7.24" y2="20" gradientUnits="userSpaceOnUse">
            <stop stop-color="#FEE000"/>
            <stop offset=".194" stop-color="#FCCF09"/>
            <stop offset=".547" stop-color="#FAB317"/>
            <stop offset=".828" stop-color="#F9A21A"/>
            <stop offset="1" stop-color="#F99B1B"/>
        </linearGradient>
        <linearGradient id="kiwmltz7yc" x1="25.143" y1="22.293" x2="2.403" y2="45.033" gradientUnits="userSpaceOnUse">
            <stop stop-color="#EF4547"/>
            <stop offset="1" stop-color="#C6176C"/>
        </linearGradient>
        <linearGradient id="9a3un7vtqd" x1="2.302" y1="-5.134" x2="20.868" y2="13.432" gradientUnits="userSpaceOnUse">
            <stop stop-color="#269E6F"/>
            <stop offset=".317" stop-color="#4DAB6D"/>
            <stop offset=".74" stop-color="#6ABA6A"/>
            <stop offset="1" stop-color="#74C168"/>
        </linearGradient>
        <clipPath id="qetag1vb7a">
            <path fill="#fff" transform="translate(.328)" d="M0 0h135v40H0z"/>
        </clipPath>
    </defs>
</svg>
