<svg width="121" height="40" viewBox="0 0 121 40" fill="none" xmlns="http://www.w3.org/2000/svg">
    <g clip-path="url(#bul6eukgva)">
        <path d="M110.799 0h-100.6c-.367 0-.73 0-1.095.002-.306.002-.61.008-.919.013-.671.008-1.341.067-2.004.176a6.665 6.665 0 0 0-1.9.627A6.438 6.438 0 0 0 .857 5.521 12.993 12.993 0 0 0 .68 7.523c-.01.307-.01.615-.015.921V31.56c.005.31.006.61.015.921.008.671.068 1.34.18 2.002.11.663.32 1.306.624 1.905.303.598.701 1.143 1.179 1.614.473.477 1.02.875 1.618 1.179a6.7 6.7 0 0 0 1.901.63c.663.11 1.333.168 2.004.177.31.007.613.011.919.011.366.002.728.002 1.095.002h100.6c.359 0 .724 0 1.084-.002.305 0 .617-.004.922-.01.67-.01 1.338-.068 2-.178a6.794 6.794 0 0 0 1.908-.63A6.26 6.26 0 0 0 118.33 38a6.405 6.405 0 0 0 1.182-1.614c.302-.6.51-1.242.619-1.905.111-.661.173-1.33.185-2.002.004-.31.004-.61.004-.921.008-.364.008-.725.008-1.094V9.536c0-.366 0-.73-.008-1.092 0-.306 0-.614-.004-.92a13.57 13.57 0 0 0-.185-2.003 6.648 6.648 0 0 0-.619-1.903 6.469 6.469 0 0 0-2.799-2.8 6.77 6.77 0 0 0-1.908-.627c-.661-.11-1.33-.169-2-.176-.305-.005-.617-.011-.922-.013-.36-.002-.725-.002-1.084-.002z" fill="#000"/>
        <path d="M9.109 39.125c-.305 0-.602-.004-.904-.01a12.696 12.696 0 0 1-1.87-.164 5.884 5.884 0 0 1-1.656-.548 5.406 5.406 0 0 1-1.397-1.016 5.321 5.321 0 0 1-1.02-1.397 5.722 5.722 0 0 1-.544-1.657 12.413 12.413 0 0 1-.166-1.875c-.007-.21-.015-.913-.015-.913v-23.1s.009-.692.015-.895a12.37 12.37 0 0 1 .165-1.872 5.756 5.756 0 0 1 .544-1.662c.26-.518.603-.99 1.015-1.398A5.565 5.565 0 0 1 6.332 1.05C6.952.95 7.579.895 8.207.887L9.11.875h102.769l.913.013a12.37 12.37 0 0 1 1.858.162 5.922 5.922 0 0 1 1.671.548 5.589 5.589 0 0 1 2.415 2.42c.261.52.441 1.076.536 1.649.103.624.161 1.255.173 1.887.003.283.003.588.003.89.008.375.008.732.008 1.092v20.929c0 .363 0 .718-.008 1.075 0 .325 0 .623-.004.93-.011.62-.068 1.24-.171 1.853a5.716 5.716 0 0 1-.54 1.67 5.47 5.47 0 0 1-1.015 1.386 5.414 5.414 0 0 1-1.4 1.022 5.855 5.855 0 0 1-1.668.55c-.618.101-1.242.156-1.869.163-.293.007-.599.011-.897.011l-1.084.002-101.69-.002z" fill="#fff"/>
        <path d="M25.66 19.89a5.146 5.146 0 0 1 2.451-4.318 5.268 5.268 0 0 0-4.15-2.244c-1.746-.183-3.44 1.045-4.329 1.045-.907 0-2.277-1.027-3.752-.997a5.527 5.527 0 0 0-4.652 2.837c-2.01 3.482-.51 8.6 1.416 11.414.964 1.378 2.09 2.918 3.564 2.863 1.443-.06 1.981-.92 3.722-.92 1.725 0 2.23.92 3.735.886 1.547-.026 2.523-1.385 3.453-2.776a11.402 11.402 0 0 0 1.579-3.216 4.972 4.972 0 0 1-3.036-4.575zM22.82 11.477a5.067 5.067 0 0 0 1.16-3.63 5.155 5.155 0 0 0-3.336 1.726 4.82 4.82 0 0 0-1.19 3.495 4.262 4.262 0 0 0 3.366-1.591zM42.966 27.14h-4.734l-1.136 3.356H35.09l4.483-12.418h2.083l4.484 12.418H44.1l-1.135-3.356zm-4.243-1.55h3.752l-1.85-5.447h-.052l-1.85 5.448zM55.823 25.97c0 2.813-1.506 4.62-3.778 4.62a3.07 3.07 0 0 1-2.849-1.583h-.043v4.484h-1.858V21.442h1.799v1.506h.034a3.212 3.212 0 0 1 2.883-1.6c2.298 0 3.812 1.816 3.812 4.622zm-1.91 0c0-1.833-.947-3.038-2.392-3.038-1.42 0-2.376 1.23-2.376 3.038 0 1.824.956 3.046 2.375 3.046 1.446 0 2.393-1.197 2.393-3.046zM65.789 25.97c0 2.813-1.507 4.62-3.78 4.62a3.07 3.07 0 0 1-2.848-1.583h-.043v4.484H57.26V21.442h1.799v1.506h.034a3.212 3.212 0 0 1 2.883-1.6c2.297 0 3.813 1.816 3.813 4.622zm-1.911 0c0-1.833-.947-3.038-2.393-3.038-1.42 0-2.375 1.23-2.375 3.038 0 1.824.956 3.046 2.375 3.046 1.446 0 2.393-1.197 2.393-3.046zM72.374 27.036c.137 1.232 1.334 2.04 2.968 2.04 1.567 0 2.694-.809 2.694-1.919 0-.964-.68-1.54-2.29-1.936l-1.609-.388c-2.28-.55-3.339-1.617-3.339-3.348 0-2.142 1.868-3.614 4.518-3.614 2.625 0 4.424 1.472 4.484 3.614h-1.876c-.112-1.239-1.136-1.987-2.633-1.987-1.498 0-2.522.757-2.522 1.858 0 .878.654 1.395 2.255 1.79l1.368.336c2.548.603 3.606 1.626 3.606 3.443 0 2.323-1.85 3.778-4.793 3.778-2.754 0-4.614-1.42-4.734-3.667h1.903zM84.01 19.3v2.142h1.722v1.472H84.01v4.991c0 .776.345 1.137 1.102 1.137a5.81 5.81 0 0 0 .611-.043v1.463c-.34.064-.686.092-1.032.086-1.833 0-2.548-.689-2.548-2.444v-5.19h-1.316v-1.472h1.316V19.3h1.867zM86.728 25.97c0-2.849 1.678-4.639 4.294-4.639 2.625 0 4.295 1.79 4.295 4.639 0 2.856-1.661 4.638-4.295 4.638-2.633 0-4.294-1.782-4.294-4.638zm6.695 0c0-1.954-.895-3.108-2.401-3.108-1.506 0-2.401 1.162-2.401 3.108 0 1.962.895 3.106 2.401 3.106 1.506 0 2.401-1.144 2.401-3.106zM96.85 21.442h1.772v1.541h.043a2.16 2.16 0 0 1 2.177-1.635c.214-.001.428.022.637.069v1.738a2.591 2.591 0 0 0-.835-.112 1.871 1.871 0 0 0-1.937 2.083v5.37H96.85v-9.054zM110.047 27.837c-.25 1.643-1.85 2.771-3.898 2.771-2.634 0-4.269-1.764-4.269-4.595 0-2.84 1.644-4.682 4.191-4.682 2.505 0 4.08 1.72 4.08 4.466v.637h-6.395v.112a2.37 2.37 0 0 0 .639 1.832 2.364 2.364 0 0 0 1.797.732 2.045 2.045 0 0 0 2.091-1.273h1.764zm-6.282-2.702h4.526a2.167 2.167 0 0 0-.608-1.634 2.168 2.168 0 0 0-1.612-.664 2.293 2.293 0 0 0-2.306 2.298zM38.49 8.731a2.64 2.64 0 0 1 2.808 2.965c0 1.906-1.03 3.002-2.808 3.002h-2.155V8.73h2.155zm-1.228 5.123h1.125a1.876 1.876 0 0 0 1.968-2.146 1.882 1.882 0 0 0-1.968-2.134h-1.125v4.28zM42.345 12.444a2.134 2.134 0 1 1 4.247 0 2.133 2.133 0 1 1-4.247 0zm3.333 0c0-.976-.439-1.546-1.208-1.546-.773 0-1.207.57-1.207 1.546 0 .984.434 1.55 1.207 1.55.77 0 1.208-.57 1.208-1.55zM52.237 14.698h-.922l-.93-3.317h-.07l-.927 3.317h-.913l-1.242-4.503h.902l.806 3.436h.067l.926-3.436h.852l.926 3.436h.07l.803-3.436h.889l-1.237 4.503zM54.518 10.195h.855v.715h.067a1.348 1.348 0 0 1 1.343-.802 1.464 1.464 0 0 1 1.559 1.675v2.915h-.889v-2.692c0-.724-.314-1.084-.972-1.084a1.033 1.033 0 0 0-1.075 1.141v2.635h-.888v-4.503zM59.758 8.437h.889v6.26h-.89v-6.26zM61.882 12.444a2.134 2.134 0 1 1 4.247 0 2.134 2.134 0 1 1-4.247 0zm3.333 0c0-.976-.439-1.546-1.208-1.546-.773 0-1.207.57-1.207 1.546 0 .984.434 1.55 1.207 1.55.77 0 1.208-.57 1.208-1.55zM67.065 13.424c0-.81.603-1.277 1.675-1.344l1.22-.07v-.389c0-.476-.315-.744-.922-.744-.496 0-.84.182-.939.5h-.86c.09-.773.818-1.27 1.84-1.27 1.129 0 1.765.563 1.765 1.514v3.077h-.855v-.633h-.07a1.516 1.516 0 0 1-1.353.707 1.36 1.36 0 0 1-1.501-1.348zm2.895-.384v-.377l-1.1.07c-.62.042-.901.253-.901.65 0 .405.351.64.834.64a1.064 1.064 0 0 0 1.166-.983zM72.012 12.444c0-1.423.732-2.324 1.87-2.324a1.485 1.485 0 0 1 1.38.79h.067V8.437h.888v6.26h-.851v-.71h-.07a1.563 1.563 0 0 1-1.415.785c-1.145 0-1.869-.901-1.869-2.328zm.918 0c0 .955.45 1.53 1.203 1.53.75 0 1.212-.583 1.212-1.526 0-.938-.468-1.53-1.212-1.53-.748 0-1.203.58-1.203 1.526zM79.894 12.444a2.132 2.132 0 1 1 4.247 0 2.134 2.134 0 1 1-4.247 0zm3.333 0c0-.976-.438-1.546-1.208-1.546-.772 0-1.207.57-1.207 1.546 0 .984.435 1.55 1.207 1.55.77 0 1.208-.57 1.208-1.55zM85.334 10.195h.855v.715h.066a1.348 1.348 0 0 1 1.344-.802 1.464 1.464 0 0 1 1.559 1.675v2.915h-.889v-2.692c0-.724-.314-1.084-.972-1.084a1.032 1.032 0 0 0-1.075 1.141v2.635h-.888v-4.503zM94.18 9.074v1.141h.975v.749h-.976v2.315c0 .472.195.678.637.678.113 0 .226-.007.339-.02v.74c-.16.029-.322.044-.484.046-.988 0-1.381-.348-1.381-1.216v-2.543h-.715v-.749h.715V9.074h.89zM96.369 8.437h.88v2.482h.07a1.386 1.386 0 0 1 1.374-.807 1.485 1.485 0 0 1 1.551 1.678v2.908h-.89V12.01c0-.72-.335-1.084-.963-1.084a1.05 1.05 0 0 0-1.134 1.142v2.63h-.888V8.437zM105.425 13.482a1.827 1.827 0 0 1-1.951 1.303 2.047 2.047 0 0 1-2.08-2.325 2.077 2.077 0 0 1 2.076-2.352c1.253 0 2.009.856 2.009 2.27v.31h-3.18v.05a1.19 1.19 0 0 0 1.199 1.29 1.08 1.08 0 0 0 1.072-.546h.855zm-3.126-1.451h2.275a1.09 1.09 0 0 0-1.109-1.167 1.15 1.15 0 0 0-1.166 1.167z" fill="#000"/>
    </g>
    <defs>
        <clipPath id="bul6eukgva">
            <path fill="#fff" transform="translate(.664)" d="M0 0h119.664v40H0z"/>
        </clipPath>
    </defs>
</svg>
