<svg width="307" height="104" viewBox="0 0 307 104" fill="none" xmlns="http://www.w3.org/2000/svg">
    <path d="M29.3 31.5h15l11.9 37 12.6-37H84l8.9 69.1H77.6l-4.3-39.8h-.2L59 100.6h-6L39.5 60.8h-.1l-4.9 39.8H19.3l10-69.1zM285.8 31.5h18.9l-23.4 32.7 25.5 36.4H287l-19.7-30h-.2v30H252V31.5h15.2V60h.2l18.4-28.5zM131.6 28.7C111 28.7 94.2 45.4 94.2 66c0 20.6 16.7 37.3 37.4 37.3 20.6 0 37.3-16.7 37.3-37.3 0-20.6-16.7-37.3-37.3-37.3zm0 60.4c-12.7 0-23-10.3-23-23s10.3-23 23-23 23 10.3 23 23-10.3 23-23 23zM242.6 47.1c-2.2 4.6-6.2 8.2-11.1 9.8 1.2 2.8 1.9 5.9 1.9 9.2 0 12.7-10.3 23-23 23s-23-10.3-23-23c0-11.5 8.4-21 19.5-22.7-.3-1.4-.5-2.9-.5-4.5 0-3.7 1.1-7.2 2.9-10.1-20.1.6-36.2 17.1-36.2 37.3 0 20.6 16.7 37.3 37.3 37.3 20.6 0 37.3-16.7 37.3-37.3.1-7-1.8-13.5-5.1-19z" fill="#E60012"/>
    <path d="M225.4 27.5c0-.9.8-1.7 1.7-1.7.9 0 1.7.8 1.7 1.7 0 .9-.8 1.7-1.7 1.7-1 0-1.7-.7-1.7-1.7zM79.2 23.4c-.9 0-1.7-.8-1.7-1.7 0-.9.8-1.7 1.7-1.7.9 0 1.7.8 1.7 1.7-.1.9-.8 1.7-1.7 1.7zm6.3-1.8c0-.9.7-1.7 1.6-1.8.9 0 1.7.7 1.8 1.6 0 .9-.7 1.7-1.6 1.8h-.1c-.9-.1-1.6-.7-1.7-1.6zM71 23.1c-.9 0-1.6-.8-1.6-1.8.1-.9.8-1.6 1.8-1.6.9 0 1.6.8 1.6 1.8 0 .9-.8 1.6-1.8 1.6.1 0 .1 0 0 0zm-8-.4c-.9-.1-1.6-.9-1.5-1.8.1-.9.9-1.6 1.8-1.6.9.1 1.6.9 1.6 1.8-.1.9-.8 1.6-1.7 1.6H63zM93.6 21c-.1-.9.6-1.8 1.5-1.9.9-.1 1.8.6 1.8 1.5.1.9-.6 1.8-1.5 1.9h-.2c-.8 0-1.5-.6-1.6-1.5zm-38.7 1c-.9-.1-1.6-.9-1.5-1.8.1-.9.9-1.6 1.8-1.5.9.1 1.6.9 1.5 1.8-.1.9-.8 1.5-1.7 1.5h-.1zm168.2-1.2c-.5-.8-.2-1.8.6-2.3.8-.5 1.8-.2 2.3.6.5.8.2 1.8-.6 2.3-.3.2-.5.2-.8.2-.6 0-1.1-.3-1.5-.8zM101.6 20c-.1-.9.5-1.8 1.4-1.9.9-.1 1.8.5 1.9 1.4.1.9-.5 1.8-1.4 1.9h-.3c-.8.1-1.5-.5-1.6-1.4zm-54.7 1c-.9-.1-1.6-1-1.4-1.9.1-.9 1-1.6 1.9-1.4.9.1 1.6 1 1.5 1.9-.1.8-.8 1.5-1.7 1.5-.2 0-.3-.1-.3-.1zm62.6-2.3c-.2-.9.4-1.8 1.3-2 .9-.2 1.8.4 2 1.3.2.9-.4 1.8-1.3 2h-.3c-.8 0-1.5-.5-1.7-1.3zm-70.7 1.1c-.9-.2-1.5-1-1.4-1.9.2-.9 1-1.5 1.9-1.4.9.2 1.5 1 1.4 1.9-.1.8-.9 1.4-1.6 1.4h-.3zm-7.9-1.5c-.9-.2-1.5-1.1-1.3-2 .2-.9 1.1-1.5 2-1.3.9.2 1.5 1.1 1.3 2-.2.8-.9 1.3-1.6 1.3h-.4zm86.5-1.3c-.2-.9.3-1.8 1.2-2 .9-.2 1.8.3 2 1.2.2.9-.3 1.8-1.2 2h-.4c-.8.1-1.4-.4-1.6-1.2zM23 16.3c-.9-.2-1.4-1.2-1.1-2.1.3-.9 1.2-1.4 2.1-1.1.9.3 1.4 1.2 1.1 2.1-.2.7-.9 1.2-1.6 1.2-.2-.1-.4-.1-.5-.1zM125.2 15c-.2-.9.3-1.8 1.2-2.1.9-.2 1.8.3 2.1 1.2.2.9-.3 1.8-1.2 2.1-.1 0-.3.1-.4.1-.8 0-1.5-.5-1.7-1.3zm93.2 0c-.7-.6-.8-1.7-.2-2.4.6-.7 1.7-.8 2.4-.1.7.6.8 1.7.1 2.4-.3.4-.8.6-1.3.6-.3 0-.7-.2-1-.5zm-85.5-2.1c-.3-.9.2-1.8 1.1-2.1.9-.3 1.8.3 2.1 1.1.3.9-.3 1.8-1.1 2.1-.2 0-.3.1-.5.1-.7 0-1.3-.5-1.6-1.2zm-117.7.8c-.9-.3-1.3-1.3-1-2.2.3-.9 1.3-1.3 2.2-1 .9.3 1.3 1.3 1 2.2-.3.7-.9 1.1-1.6 1.1-.2 0-.4 0-.6-.1zm125.5-3.1c-.3-.9.2-1.8 1.1-2.1.9-.3 1.8.2 2.1 1.1.3.9-.2 1.8-1.1 2.1-.2 0-.3.1-.5.1-.7 0-1.4-.5-1.6-1.2zm71.4.2c-.8-.4-1.1-1.4-.7-2.3.4-.8 1.4-1.1 2.3-.7.8.4 1.1 1.4.7 2.3-.3.6-.9.9-1.5.9-.3 0-.6-.1-.8-.2zM7.7 10.3C6.9 9.9 6.6 8.8 7 8c.4-.8 1.4-1.1 2.3-.7.8.4 1.1 1.5.7 2.3-.3.6-.9.9-1.5.9-.3 0-.6-.1-.8-.2zm140.7-2c-.2-.9.3-1.8 1.1-2.1.9-.2 1.8.3 2.1 1.2.2.9-.3 1.8-1.2 2.1-.1 0-.3.1-.5.1-.6 0-1.3-.5-1.5-1.3zm56.5-.5c-.9-.3-1.4-1.2-1.1-2.1.3-.9 1.2-1.4 2.1-1.1.9.3 1.4 1.2 1.1 2.1-.2.7-.9 1.2-1.6 1.2-.2 0-.3 0-.5-.1zm-48.7-1.6c-.2-.9.3-1.8 1.2-2 .9-.2 1.8.3 2 1.2.2.9-.3 1.8-1.2 2-.1 0-.3.1-.4.1-.8 0-1.5-.5-1.6-1.3zM.7 5.6C0 4.9 0 3.9.6 3.2s1.7-.8 2.4-.1c.7.6.8 1.7.1 2.4-.4.3-.8.5-1.3.5-.4 0-.8-.1-1.1-.4zm196.6.3c-.9-.2-1.5-1.1-1.3-2 .2-.9 1.1-1.5 2-1.3.9.2 1.5 1.1 1.3 2-.2.8-.9 1.4-1.6 1.4-.2-.1-.3-.1-.4-.1zM164 4.4c-.2-.9.4-1.8 1.3-2 .9-.2 1.8.4 2 1.3.2.9-.4 1.8-1.3 2h-.3c-.8 0-1.6-.5-1.7-1.3zm25.5.3c-.9-.1-1.6-.9-1.5-1.8.1-.9.9-1.6 1.8-1.5.9.1 1.6.9 1.5 1.8-.1.9-.8 1.5-1.7 1.5h-.1zM171.9 3c-.1-.9.6-1.7 1.5-1.8.9-.1 1.7.6 1.8 1.5.1.9-.6 1.7-1.5 1.8h-.2c-.8 0-1.5-.6-1.6-1.5zm9.7 1.2c-.9 0-1.7-.8-1.6-1.7 0-.9.8-1.7 1.7-1.7.9 0 1.7.8 1.6 1.7 0 1-.8 1.7-1.7 1.7z" fill="#000"/>
    <path d="M225.4 53.5c8.1 0 14.7-6.6 14.7-14.7s-6.6-14.7-14.7-14.7-14.7 6.6-14.7 14.7c.1 8.1 6.6 14.7 14.7 14.7z" fill="url(#km6k3mrwta)"/>
    <defs>
        <radialGradient id="km6k3mrwta" cx="0" cy="0" r="1" gradientUnits="userSpaceOnUse" gradientTransform="translate(209.283 28.726) scale(25.5054)">
            <stop stop-color="#FBF077"/>
            <stop offset="1" stop-color="#E66C22"/>
        </radialGradient>
    </defs>
</svg>
