<svg width="195" height="78" viewBox="0 0 195 78" fill="none" xmlns="http://www.w3.org/2000/svg">
    <path d="M9.027 18.928h9.164l2.869 10.058c.22.7.329 1.367.548 2.835h.22c.11-1.324.185-1.881.48-2.835l2.87-10.058h9.087l4.025 24.58h-8.573l-1.105-11.02c-.11-.886-.11-1.367-.144-2.43h-.151c-.254 1.29-.33 1.696-.481 2.067L24.19 43.517h-5.223l-3.274-10.801c-.22-.667-.329-1.257-.48-2.65h-.262c0 1.182 0 1.51-.034 1.916l-1.215 11.526h-8.65l3.975-24.58zM96.783 18.928h8.565v6.742c0 2.025 0 2.32-.186 3.907h.186c.185-.81.439-1.4 1.029-2.397.667-1.071 1.106-1.839 1.215-2.1l3.316-6.152h9.721l-7.695 11.982 8.514 12.598h-10.354l-4.05-7.037c-.667-1.257-.295-.59-1.181-2.135-.406-.734-.33-.59-.515-1.105h-.186c.144.962.186 1.476.186 3.501v6.776h-8.565v-24.58z" fill="#000"/>
    <path fill-rule="evenodd" clip-rule="evenodd" d="m81.198 44.732.675-.026.675-.042.667-.093.64-.118.65-.143.633-.186.608-.202.6-.228.59-.279.574-.278.556-.33.532-.337.523-.37.507-.398.48-.413.456-.439.439-.455.413-.481.397-.507.371-.523.338-.531.329-.557.278-.574.279-.59.228-.6.202-.607.186-.633.143-.65.118-.641.093-.667.042-.675.017-.683-.017-.675-.042-.676-.093-.666-.118-.642-.143-.65-.186-.632-.202-.608-.228-.599-.279-.59-.278-.574-.33-.557-.337-.532-.371-.523-.397-.506-.413-.481-.439-.456-.455-.439-.481-.413-.507-.397-.523-.37-.531-.338-.557-.33-.574-.278-.59-.278-.6-.228-.608-.203-.632-.185-.65-.144-.641-.118-.667-.093-.675-.042-.675-.025-.684.025-.675.042-.666.093-.642.118-.65.144-.632.185-.608.203-.599.228-.59.278-.574.279-.557.329-.532.337-.523.371-.506.397-.481.413-.456.44-.439.455-.413.48-.397.507-.37.523-.338.532-.321.557-.287.574-.278.59-.228.6-.203.607-.185.633-.144.65-.118.64-.093.667-.042.675-.017.675.017.684.042.675.093.667.118.64.144.65.185.634.203.607.228.6.278.59.287.574.32.557.338.531.371.523.397.507.413.48.44.456.455.439.48.413.507.397.523.371.532.338.557.329.574.278.59.279.6.228.607.202.633.186.65.143.64.118.667.093.675.042.684.026z" fill="#FFF100"/>
    <path fill-rule="evenodd" clip-rule="evenodd" d="m94.361 31.476-.008.683-.042.675-.085.658-.126.642-.135.64-.186.625-.21.616-.229.6-.278.573-.278.574-.321.557-.338.531-.371.515-.388.498-.422.48-.422.465-.456.422-.48.422-.507.388-.515.371-.531.338-.557.32-.574.279-.574.278-.599.228-.616.203-.624.194-.641.135-.642.126-.658.085-.675.042-.675.008v.16l.675-.033.675-.042.675-.093.65-.118.641-.144.642-.185.615-.211.6-.228.599-.27.573-.287.557-.337.532-.338.532-.371.506-.397.48-.413.456-.448.448-.455.413-.481.397-.507.371-.531.338-.54.337-.557.287-.565.27-.6.236-.599.203-.616.185-.64.144-.642.118-.65.084-.675.051-.675.034-.683h-.16zM81.198 18.312l.675.008.675.043.658.084.642.127.64.135.625.185.616.211.6.228.573.279.574.278.557.32.531.338.515.372.507.388.48.422.456.421.422.465.422.472.388.506.371.515.338.532.32.557.279.573.278.574.228.6.211.615.186.625.135.64.126.642.085.658.042.675.008.675h.16l-.033-.675-.05-.675-.085-.675-.118-.65-.144-.64-.185-.642-.203-.616-.236-.599-.27-.6-.287-.573-.337-.557-.338-.532-.371-.531-.397-.506-.413-.481-.448-.456-.455-.447-.481-.414-.506-.396-.532-.371-.532-.338-.557-.338-.573-.287-.6-.27-.599-.236-.615-.202-.642-.186-.641-.143-.65-.119-.675-.092-.675-.043-.675-.033v.16zM68.026 31.476l.008-.675.043-.676.084-.658.127-.641.143-.641.177-.625.211-.616.228-.599.279-.574.278-.573.32-.557.338-.532.371-.515.397-.506.413-.473.422-.464.465-.421.472-.422.506-.389.515-.37.532-.338.557-.321.573-.278.574-.279.6-.228.615-.21.625-.186.64-.135.642-.127.658-.084.675-.043.684-.008v-.16l-.683.034-.676.042-.675.092-.65.119-.64.143-.642.186-.616.202-.599.236-.6.27-.564.287-.557.338-.54.338-.532.37-.506.397-.481.414-.456.447-.447.456-.414.48-.396.507-.371.531-.338.532-.338.557-.286.574-.27.599-.228.6-.211.615-.186.641-.143.642-.119.65-.084.674-.05.675-.026.675h.152zM81.198 44.647l-.683-.008-.676-.042-.658-.085-.641-.126-.641-.135-.625-.194-.616-.203-.599-.228-.574-.278-.573-.279-.557-.32-.532-.338-.515-.371-.506-.388-.473-.422-.464-.422-.421-.464-.414-.481-.397-.498-.37-.515-.338-.531-.321-.557-.278-.574-.279-.574-.228-.599-.21-.616-.178-.624-.143-.642-.127-.64-.084-.659-.043-.675-.008-.683h-.152l.026.683.05.675.084.675.119.65.143.641.186.641.21.616.229.6.27.599.286.565.338.557.338.54.37.532.397.506.414.48.447.456.456.448.48.413.507.397.532.37.54.338.556.338.566.287.599.27.6.228.615.21.641.186.642.144.65.118.674.093.675.042.684.034v-.16z" fill="#020101"/>
    <path fill-rule="evenodd" clip-rule="evenodd" d="m91.484 26.564-.447-.413-.44-.371-.446-.33-.447-.295-.448-.253-.447-.202-.447-.177-.439-.136-.43-.084-.422-.067-.414-.009-.405.009-.396.05-.38.085-.371.11-.355.151-.32.177-.32.203-.296.245-.279.27-.253.295-.228.33-.202.345-.186.388-.143.397-.127.43-.084.456-.06.472-.033.498.008.532.051.54.084.557.085.506.076.49.076.489.067.472.042.456.026.439.008.413-.017.388-.042.355-.093.32-.11.27-.151.245-.186.194-.236.144-.287.093-.338.033h-.084l-.346-.033-.279-.093-.244-.144-.186-.194-.152-.245-.11-.27-.084-.32-.042-.355-.025-.388.008-.413.034-.439.042-.456.068-.472.067-.49.085-.489.092-.506.076-.557.042-.54.009-.532-.017-.498-.068-.472-.084-.456-.127-.43-.151-.397-.178-.388-.202-.346-.228-.329-.253-.295-.27-.27-.295-.245-.321-.203-.338-.177-.346-.152-.37-.11-.389-.084-.388-.05-.405-.009-.414.009-.43.067-.422.084-.439.136-.447.177-.447.202-.447.253-.448.296-.455.329-.43.371-.448.413h20.488z" fill="#FFF100"/>
    <path fill-rule="evenodd" clip-rule="evenodd" d="m82.43 30.758-.093-.548-.042-.54v-.532l.025-.498.05-.455.094-.464.126-.414.144-.405.185-.371.186-.346.228-.32.253-.296.27-.262.295-.236.313-.203.32-.168.338-.152.362-.11.389-.093.38-.042H87.07l.413.068.43.084.423.135.447.169.439.21.447.245.447.287.439.33.439.37.447.406.084-.085-.447-.43-.439-.371-.456-.321-.447-.295-.447-.262-.464-.21-.447-.178-.448-.127-.421-.092-.44-.06-.413-.025-.405.026-.405.042-.38.084-.388.11-.354.152-.329.177-.33.22-.294.236-.296.286-.253.296-.228.337-.21.346-.186.397-.135.405-.135.439-.085.455-.059.481-.042.498.025.532.042.54.085.573.135-.025zM81.282 36.15v-.008l.346-.034.296-.093.261-.152.203-.21.16-.254.11-.287.084-.32.042-.372.034-.388-.017-.413-.025-.439-.042-.456-.068-.48-.076-.49-.076-.49-.084-.506-.135.026.093.497.076.49.076.498.059.455.05.456.017.439v.413l-.008.388-.043.346-.092.304-.102.262-.143.236-.177.186-.22.126-.27.101-.329.034v-.017.152zM81.198 36.142v.008h.084v-.152h-.084V36.142z" fill="#020101"/>
    <path fill-rule="evenodd" clip-rule="evenodd" d="m80.059 30.758-.085.507-.092.489-.068.498-.059.472-.042.456-.034.439-.025.413.034.388.042.372.084.32.11.287.169.253.194.211.261.152.296.093.354.034v-.127l-.33-.034-.278-.1-.219-.127-.169-.186-.143-.236-.11-.262-.084-.304-.05-.346-.01-.388v-.413l.034-.439.043-.456.067-.472.068-.481.084-.49.084-.497-.126-.026zM71.039 26.607l.447-.405.439-.372.43-.329.447-.287.456-.244.43-.211.447-.169.43-.135.423-.084.421-.068h.819l.38.042.38.093.362.11.338.152.337.169.304.202.295.236.262.262.253.295.228.32.203.347.168.371.16.405.119.414.084.464.068.455.008.498v.532l-.042.54-.076.548.126.026.085-.574.042-.54.017-.532-.034-.498-.059-.48-.093-.456-.118-.44-.152-.404-.177-.397-.22-.346-.227-.337-.253-.296-.279-.287-.295-.236-.33-.22-.337-.176-.363-.152-.38-.11-.379-.084-.405-.043-.405-.025-.413.026-.44.059-.43.092-.447.127-.447.177-.456.211-.447.262-.447.295-.464.32-.43.372-.456.43.093.085zM92.412 35.087l-.017.371-.05.346-.085.338-.126.329-.152.304-.16.295-.22.27-.22.253-.253.22-.27.219-.295.16-.304.16-.329.119-.337.084-.355.06-.37.008v.151l.37-.033.372-.05.362-.094.33-.118.329-.152.295-.185.295-.22.245-.236.245-.253.22-.295.185-.296.152-.329.118-.329.093-.354.05-.372.034-.371h-.152zM88.868 31.535l.371.008.355.06.337.083.33.119.303.151.296.178.27.21.244.22.228.262.22.27.16.295.152.304.126.329.085.337.05.355.017.371h.152l-.034-.371-.05-.372-.093-.362-.118-.33-.152-.329-.186-.295-.22-.295-.227-.262-.262-.236-.295-.211-.295-.194-.33-.152-.329-.118-.362-.093-.372-.05-.37-.034v.152zM85.324 35.087l.009-.371.059-.355.084-.337.118-.33.152-.303.177-.295.211-.27.211-.262.27-.22.27-.21.295-.178.304-.151.33-.119.337-.084.346-.059.371-.008v-.152l-.371.033-.371.051-.355.093-.329.118-.329.152-.295.194-.296.21-.261.237-.236.262-.212.295-.194.295-.151.33-.127.329-.084.362-.051.372-.034.371h.152z" fill="#020101"/>
    <path fill-rule="evenodd" clip-rule="evenodd" d="m88.868 38.623-.371-.009-.346-.059-.338-.084-.329-.118-.303-.16-.296-.161-.27-.22-.27-.227-.21-.245-.212-.27-.177-.295-.152-.304-.118-.33-.084-.337-.06-.346-.008-.371h-.152l.034.371.05.372.085.354.127.329.151.33.195.294.21.296.237.261.261.228.296.22.295.185.33.152.328.118.355.093.37.05.372.034v-.151zM77.468 35.087l-.008.371-.06.346-.084.338-.118.329-.152.304-.168.295-.22.27-.21.253-.254.22-.278.219-.296.16-.303.16-.33.119-.337.084-.346.06-.371.008v.151l.371-.033.371-.05.363-.094.32-.118.33-.152.295-.185.295-.22.254-.236.236-.253.22-.295.185-.296.152-.329.126-.329.085-.354.05-.372.034-.371h-.152zM73.933 31.535l.371.008.346.06.337.083.33.119.303.151.296.178.278.21.236.22.228.262.22.27.168.295.152.304.118.329.085.337.059.355.008.371h.152l-.034-.371-.05-.372-.085-.362-.126-.33-.152-.329-.186-.295-.22-.295-.227-.262-.262-.236-.295-.211-.295-.194-.33-.152-.32-.118-.363-.093-.371-.05-.371-.034v.152zM70.38 35.087l.009-.371.059-.355.084-.337.127-.33.152-.303.168-.295.211-.27.22-.262.261-.22.27-.21.296-.178.303-.151.33-.119.337-.084.355-.059.37-.008v-.152l-.37.033-.372.051-.363.093-.329.118-.329.152-.295.194-.287.21-.27.237-.236.262-.211.295-.194.295-.152.33-.118.329-.093.362-.05.372-.035.371h.152z" fill="#020101"/>
    <path fill-rule="evenodd" clip-rule="evenodd" d="m73.933 38.623-.372-.009-.354-.059-.337-.084-.33-.118-.303-.16-.296-.161-.27-.22-.261-.227-.22-.245-.21-.27-.17-.295-.151-.304-.127-.33-.084-.337-.06-.346-.008-.371h-.151l.033.371.05.372.094.354.118.329.152.33.194.294.21.296.237.261.27.228.287.22.295.185.33.152.328.118.363.093.371.05.372.034v-.151zM79.367 34.108h.05l.043-.008.042.008h.042l.034.017.042.008.042.009.025.017.043-.135-.043-.009-.042-.017-.042-.008-.059-.008h-.042l-.042-.009-.042-.017h-.051v.152zM78.49 34.944l.008-.178.05-.151.076-.136.11-.126.135-.11.152-.076.16-.042.186-.017v-.152l-.203.034-.185.042-.177.102-.152.11-.135.151-.093.177-.06.169-.033.203h.16z" fill="#020101"/>
    <path fill-rule="evenodd" clip-rule="evenodd" d="m79.367 35.77-.186-.008-.16-.059-.152-.06-.135-.109-.11-.135-.076-.126-.05-.16-.009-.17h-.16l.034.195.059.177.093.169.135.16.151.11.178.084.185.05.203.034v-.151z" fill="#020101"/>
    <path fill-rule="evenodd" clip-rule="evenodd" d="m80.025 35.517-.068.06-.058.05-.093.034-.076.042-.076.034-.102.025-.084.017-.101-.009v.152l.101-.008.11-.025.101-.017.093-.034.101-.042.084-.06.093-.05.06-.076-.085-.093zM82.978 35.77h-.177l-.076-.016-.076-.026-.076-.034-.059-.033-.076-.034-.05-.05-.093.11.076.05.076.059.076.034.076.033.1.017.077.026.11.016h.092v-.151zM83.856 34.944l-.008.168-.051.16-.076.127-.11.135-.135.11-.152.059-.16.059-.186.008v.152l.203-.033.186-.051.177-.084.152-.11.126-.16.102-.17.059-.176.025-.194h-.152z" fill="#020101"/>
    <path fill-rule="evenodd" clip-rule="evenodd" d="m82.978 34.108.186.017.16.042.152.076.135.11.11.127.076.135.05.151.009.178h.152l-.025-.203-.06-.169-.1-.177-.127-.152-.152-.11-.177-.1-.186-.043-.203-.034v.152zM82.725 34.133l.06-.008.067-.017.059-.008.067.008v-.152l-.067.017-.076.009-.067.008-.068.008.025.136z" fill="#020101"/>
    <path fill-rule="evenodd" clip-rule="evenodd" d="m75.469 30.345.422-.025.38-.043.345-.076.32-.1.28-.119.252-.127.228-.143.203-.143.168-.144.144-.143.118-.144.101-.118.068-.093.05-.093.026-.05v-.026l-.009-.016-.033-.06-.068-.075-.076-.11-.101-.118-.118-.135-.152-.135-.177-.16-.194-.136-.22-.143-.261-.135-.27-.118-.321-.102-.338-.075-.362-.043-.405-.017-.405.017-.372.043-.337.076-.304.1-.287.119-.261.135-.22.143-.202.152-.178.144-.143.135-.127.135-.1.118-.077.11-.05.076-.034.059-.017.016.017.026.017.05.059.076.076.102.1.126.12.135.151.144.177.143.194.152.228.143.262.127.287.118.303.101.346.076.372.043.405.025z" fill="#fff"/>
    <path fill-rule="evenodd" clip-rule="evenodd" d="m78.515 28.792.016.009-.025-.034-.017.034-.05.092-.06.085-.1.118-.119.143-.135.135-.177.135-.186.144-.227.135-.237.126-.287.127-.303.093-.346.076-.372.05-.421.009v.152l.421-.034.389-.042.354-.076.32-.101.287-.119.262-.135.228-.151.21-.144.178-.135.152-.152.118-.143.101-.127.06-.11.067-.084.025-.076-.025-.076.008.009-.11.067z" fill="#020101"/>
    <path fill-rule="evenodd" clip-rule="evenodd" d="m75.469 27.256.405.009.354.042.338.076.303.101.27.118.253.135.22.127.185.143.178.152.151.135.11.127.093.118.076.11.067.076.026.042.017.025.11-.067v-.017l-.043-.068-.067-.076-.076-.11-.093-.117-.135-.136-.152-.151-.177-.152-.203-.144-.22-.152-.27-.135-.278-.118-.329-.093-.337-.076-.371-.05-.405-.034v.16z" fill="#020101"/>
    <path fill-rule="evenodd" clip-rule="evenodd" d="m72.406 28.8.016-.008.017-.025.017-.05.06-.068.075-.11.093-.118.118-.127.143-.135.178-.143.194-.152.22-.127.252-.135.287-.118.296-.101.337-.076.355-.042.405-.009v-.16l-.405.034-.38.05-.338.076-.32.093-.279.118-.278.135-.211.152-.22.152-.177.144-.143.151-.144.136-.093.118-.075.11-.06.084-.042.059-.008.017.017-.009.093.085z" fill="#020101"/>
    <path fill-rule="evenodd" clip-rule="evenodd" d="m75.469 30.269-.405-.009-.355-.05-.354-.076-.296-.093-.278-.127-.253-.126-.228-.135-.186-.152-.177-.143-.152-.127-.11-.135-.1-.127-.077-.1-.042-.068-.017-.043-.033.043-.093-.085-.009.085.026.067.059.085.076.1.1.136.136.126.152.152.169.144.21.152.228.151.279.135.278.119.32.1.347.077.38.042.405.034v-.152z" fill="#020101"/>
    <path fill-rule="evenodd" clip-rule="evenodd" d="m75.502 30.32.32-.034.296-.085.262-.143.228-.194.194-.228.143-.262.084-.295.034-.32-.034-.313-.084-.295-.143-.262-.195-.236-.227-.194-.262-.143-.295-.085-.32-.034-.313.034-.295.084-.262.144-.236.194-.194.236-.144.262-.084.295-.034.312.034.321.084.295.144.262.194.228.236.194.262.143.295.085.312.034z" fill="#fff"/>
    <path fill-rule="evenodd" clip-rule="evenodd" d="m76.987 28.759-.016.303-.093.287-.127.253-.186.22-.219.185-.253.127-.287.093-.304.017v.151l.33-.042.303-.084.279-.152.236-.211.21-.236.153-.279.084-.303.042-.33h-.152z" fill="#020101"/>
    <path fill-rule="evenodd" clip-rule="evenodd" d="m75.502 27.273.304.026.287.084.253.135.22.186.185.219.127.245.093.287.016.303h.152l-.042-.329-.084-.303-.152-.27-.211-.245-.236-.203-.279-.152-.304-.092-.329-.043v.152z" fill="#020101"/>
    <path fill-rule="evenodd" clip-rule="evenodd" d="m74.017 28.758.026-.303.084-.287.135-.245.186-.22.219-.185.245-.135.286-.084.304-.026v-.152l-.329.043-.304.092-.27.152-.244.203-.203.244-.152.27-.093.304-.042.33h.152zM75.502 30.244l-.303-.017-.287-.093-.245-.127-.22-.185-.185-.22-.135-.253-.084-.287-.026-.303h-.152l.043.328.092.304.152.279.203.236.244.211.27.152.304.084.33.042v-.151zM75.528 29.062l.075-.008.077-.017.067-.034.06-.059.058-.067.034-.06.017-.075.017-.076-.017-.085-.017-.076-.034-.059-.059-.067-.059-.06-.067-.025-.077-.025-.075-.008-.093.008-.076.025-.06.026-.058.059-.05.067-.035.06-.025.075-.008.085.008.076.025.075.034.06.05.067.06.06.059.033.076.017.093.008zM75.713 26.834l.38.068.354.101.321.118.287.144.261.143.22.16.21.178.161.152.152.177.135.16.11.135.059.127.067.11.042.084.034.067.025.026.11-.068v-.025l-.034-.06-.042-.092-.067-.11-.093-.126-.101-.152-.135-.169-.152-.169-.186-.177-.21-.177-.237-.16-.262-.17-.303-.134-.33-.127-.37-.092-.406-.068v.127z" fill="#020101"/>
    <path fill-rule="evenodd" clip-rule="evenodd" d="m72.465 27.974.033-.026.034-.042.06-.076.092-.076.11-.11.143-.117.152-.119.194-.11.22-.117.236-.11.27-.101.27-.076.32-.06.338-.025h.38l.396.026v-.127l-.396-.034h-.38l-.338.034-.337.05-.296.077-.278.1-.245.11-.22.119-.202.135-.168.118-.144.118-.11.11-.1.1-.077.077-.033.042-.009.025.085.085zM75.713 30.834l.405-.067.372-.093.329-.127.303-.135.262-.168.236-.16.211-.178.186-.186.152-.16.135-.169.1-.152.094-.126.067-.11.043-.093.033-.059v-.025l-.11-.067-.025.025-.034.067-.042.085-.067.11-.06.126-.109.135-.135.16-.152.169-.16.16-.211.178-.22.16-.261.143-.287.144-.32.118-.355.101-.38.068v.126zM72.355 29.644l.025.034.042.042.068.076.101.102.118.11.144.117.169.119.202.118.203.135.261.11.262.1.312.077.337.05.338.034h.38l.396-.034v-.126l-.396.025h-.38l-.338-.025-.32-.06-.279-.075-.261-.102-.245-.11-.21-.1-.195-.127-.152-.118-.143-.118-.118-.11-.076-.076-.068-.076-.042-.042v-.017l-.135.067z" fill="#020101"/>
    <path fill-rule="evenodd" clip-rule="evenodd" d="m86.851 30.345-.413-.025-.38-.043-.354-.076-.312-.1-.287-.119-.253-.127-.228-.143-.194-.143-.178-.144-.151-.143-.118-.144-.093-.118-.076-.093-.042-.093-.034-.05v-.026l.008-.016.05-.06.051-.075.076-.11.11-.118.118-.135.152-.135.177-.16.194-.136.22-.143.261-.135.279-.118.312-.102.338-.075.362-.043.405-.017.406.017.362.043.346.076.304.1.287.119.253.135.228.143.194.152.177.144.144.135.126.135.102.118.075.11.068.076.034.059.008.016-.008.026-.026.05-.059.076-.076.102-.093.126-.118.135-.16.144-.169.143-.202.152-.228.143-.262.127-.278.118-.312.101-.346.076-.371.043-.406.025z" fill="#fff"/>
    <path fill-rule="evenodd" clip-rule="evenodd" d="M83.696 28.716h-.009l-.017.085.034.067.06.085.075.11.085.126.118.143.168.152.17.135.21.144.228.151.261.135.287.119.33.1.345.077.397.042.413.034v-.152l-.413-.009-.371-.05-.355-.076-.303-.093-.287-.127-.237-.126-.227-.135-.186-.144-.177-.135-.144-.135-.118-.143-.084-.118-.076-.085-.034-.092-.034-.043-.008.043h-.017l-.084-.085z" fill="#020101"/>
    <path fill-rule="evenodd" clip-rule="evenodd" d="m86.852 27.096-.406.034-.37.05-.338.076-.33.093-.27.118-.278.135-.21.152-.212.144-.177.152-.152.151-.126.136-.11.118-.076.11-.06.075-.041.05v.026l.084.085.025-.017.042-.06.06-.075.076-.11.11-.118.1-.127.16-.135.17-.152.185-.143.22-.127.253-.135.27-.118.312-.101.337-.076.346-.042.406-.009v-.16z" fill="#020101"/>
    <path fill-rule="evenodd" clip-rule="evenodd" d="m90.007 28.716.009-.008-.042-.068-.068-.076-.076-.11-.093-.117-.143-.136-.144-.151-.177-.144-.202-.152-.228-.152-.27-.135-.279-.118-.32-.093-.346-.076-.371-.05-.406-.034v.16l.406.009.346.042.354.076.295.101.279.118.244.135.228.127.186.152.177.143.144.135.118.127.092.118.076.11.068.076.025.042.034.034.084-.085z" fill="#020101"/>
    <path fill-rule="evenodd" clip-rule="evenodd" d="m86.852 30.42.404-.033.38-.042.355-.076.312-.101.287-.119.27-.135.228-.151.21-.152.178-.144.152-.152.126-.126.102-.135.075-.101.068-.085.017-.067-.009-.085-.084.085-.034-.043-.025.043-.042.067-.076.101-.102.127-.11.135-.151.127-.169.143-.186.152-.236.135-.244.126-.287.127-.296.093-.346.076-.362.05-.406.009v.152z" fill="#020101"/>
    <path fill-rule="evenodd" clip-rule="evenodd" d="m86.818 30.32-.313-.034-.295-.085-.261-.143-.237-.194-.194-.228-.143-.262-.085-.295-.033-.32.033-.313.085-.295.143-.262.194-.236.237-.194.261-.143.296-.085.312-.034.32.034.296.084.261.144.228.194.194.236.144.262.084.295.034.312-.034.321-.084.295-.144.262-.194.228-.228.194-.261.143-.296.085-.32.034z" fill="#fff"/>
    <path fill-rule="evenodd" clip-rule="evenodd" d="m85.18 28.759.043.328.093.304.152.279.202.236.245.211.27.152.304.084.329.042v-.151l-.304-.017-.287-.093-.253-.127-.211-.185-.186-.22-.135-.253-.084-.287-.025-.303h-.152zM86.818 27.121l-.33.043-.303.092-.27.152-.245.203-.202.244-.152.27-.093.304-.042.33h.152l.025-.304.084-.287.135-.245.186-.22.211-.185.253-.135.287-.084.304-.026v-.152z" fill="#020101"/>
    <path fill-rule="evenodd" clip-rule="evenodd" d="m88.455 28.758-.043-.329-.084-.303-.152-.27-.21-.245-.237-.203-.278-.152-.304-.092-.33-.043v.152l.305.026.286.084.254.135.219.186.186.219.126.245.093.287.017.303h.152z" fill="#020101"/>
    <path fill-rule="evenodd" clip-rule="evenodd" d="m86.818 30.395.329-.042.303-.084.279-.152.236-.211.211-.236.152-.279.084-.303.043-.33h-.152l-.017.304-.093.287-.126.253-.186.22-.22.185-.253.127-.287.093-.303.017v.151zM86.8 29.062l-.084-.008-.075-.017-.06-.034-.067-.059-.06-.067-.024-.06-.026-.075-.008-.076.008-.085.026-.076.025-.059.059-.067.067-.06.06-.025.075-.025.085-.008.076.008.076.025.059.026.067.059.06.067.033.06.017.075.008.085-.008.076-.017.075-.034.06-.059.067-.067.06-.06.033-.075.017-.076.008zM86.598 26.708l-.405.068-.37.092-.33.127-.287.135-.27.169-.245.16-.202.177-.186.177-.16.17-.118.168-.11.143-.093.135-.076.11-.042.093-.034.059.017.017.085.084.033-.034.034-.067.042-.084.05-.11.094-.118.11-.144.118-.16.143-.177.186-.152.194-.177.228-.16.261-.144.279-.144.329-.118.346-.1.38-.069v-.126z" fill="#020101"/>
    <path fill-rule="evenodd" clip-rule="evenodd" d="m89.94 27.89-.009-.026-.033-.042-.076-.076-.102-.101-.11-.11-.134-.118-.177-.118-.195-.135-.219-.119-.253-.11-.27-.1-.312-.076-.321-.051-.354-.034h-.372l-.405.034v.127l.405-.026h.372l.354.026.304.059.278.076.279.1.227.11.22.119.194.11.152.117.143.119.11.11.101.075.05.076.035.042.033.026.085-.085zM86.615 30.708l-.388-.068-.346-.101-.329-.118-.287-.144-.261-.143-.228-.16-.194-.178-.186-.16-.143-.169-.119-.16-.11-.143-.092-.119-.05-.11-.043-.084-.034-.067-.033-.034-.085.084-.017.017.034.06.042.092.076.11.093.135.11.143.118.17.16.16.186.185.202.177.245.16.27.17.304.134.329.127.371.093.405.067v-.126z" fill="#020101"/>
    <path fill-rule="evenodd" clip-rule="evenodd" d="m89.856 29.569-.034.025-.034.042-.05.076-.102.076-.11.11-.143.118-.152.118-.194.11-.22.118-.227.11-.279.1-.27.077-.312.059-.346.025h-.38l-.388-.025v.126l.388.034h.38l.346-.034.338-.05.295-.076.27-.102.253-.11.22-.117.194-.136.177-.118.135-.118.11-.11.1-.1.077-.077.033-.042.009-.025-.084-.084zM86.691 38.277h.009l-.102-.085-.033.093-.085.11-.135.16-.168.194-.212.211-.261.228-.295.245-.338.236-.38.228-.43.22-.48.202-.516.16-.565.135-.6.076-.666.017v.152l.667-.043.624-.076.566-.126.531-.169.481-.194.447-.22.389-.252.354-.237.295-.244.27-.228.228-.228.169-.194.135-.169.084-.127.06-.092-.077-.118h.009l.025.135z" fill="#020101"/>
    <path fill-rule="evenodd" clip-rule="evenodd" d="m81.83 38.648.245-.135.237-.101.185-.051.17-.034.176.009h.177l.186.025.186.034.236.033.262.034.303.017.355.025.422-.025.48-.034.575-.076.666-.092-.025-.135-.641.1-.574.077-.481.033H84.193l-.303-.025-.262-.033-.22-.034-.202-.034-.186-.017-.177-.025-.177.008-.194.034-.21.059-.229.093-.27.135.068.135z" fill="#020101"/>
    <path fill-rule="evenodd" clip-rule="evenodd" d="m81.392 38.834-.025-.017.025.017h.008l.043-.017.042-.009.059-.025.067-.034.11-.042.11-.06-.068-.134-.11.067-.084.043-.067.033-.06.017-.016.017-.026-.017h-.008l.017.017-.017-.017.017.017-.009-.017h-.008v.16z" fill="#020101"/>
    <path fill-rule="evenodd" clip-rule="evenodd" d="m81.358 38.817-.025.017h.059v-.16h-.06l-.016.016.017-.017h-.008l-.009.017.042.127z" fill="#020101"/>
    <path fill-rule="evenodd" clip-rule="evenodd" d="m80.903 38.648.11.059.1.042.068.034.06.025.041.009.043.017h.008l.025-.017-.042-.127.017-.017h-.008l-.026.017-.017-.017-.059-.017-.059-.033-.093-.043-.11-.067-.058.135z" fill="#020101"/>
    <path fill-rule="evenodd" clip-rule="evenodd" d="M76.025 38.277h.017l.667.092.565.076.481.034.422.025.355-.025.303-.017.262-.034.245-.033.185-.034.186-.025h.169l.177-.009.177.034.186.05.228.102.253.135.059-.135-.27-.135-.228-.093-.211-.059-.194-.034-.177-.008-.17.025-.185.017-.21.034-.22.034-.262.033-.303.026H77.755l-.48-.034-.566-.076-.65-.101h.009l-.043.135z" fill="#020101"/>
    <path fill-rule="evenodd" clip-rule="evenodd" d="m81.29 40.707-.666-.017-.599-.076-.582-.135-.507-.16-.472-.203-.43-.22-.389-.227-.329-.236-.303-.245-.254-.228-.21-.21-.17-.195-.134-.16-.085-.11-.033-.093-.102.085.043-.135-.076.118.059.093.084.126.135.169.177.194.228.228.245.228.312.244.346.237.397.253.447.22.464.193.54.169.574.127.624.075.667.043v-.152z" fill="#020101"/>
    <path d="M81.434 40.707h-.143v.152h.143v-.152z" fill="#020101"/>
    <path fill-rule="evenodd" clip-rule="evenodd" d="m80.953 39.044-.21-.084-.186-.067-.186-.043-.186-.017-.168-.016h-.186l-.203.017h-.227l-.237.008-.287-.025-.312-.034-.363-.05-.413-.077-.481-.11-.523-.151-.616-.203-.042.135.607.194.549.152.48.11.414.076.388.059.313.034.286.017.237.016h.228l.202-.017h.186l.168-.008.17.025.16.043.185.067.186.084.067-.135zM81.426 39.264l.017.017h-.009l-.025-.017-.042-.009-.05-.033-.068-.017-.076-.05-.102-.052-.118-.059-.067.136.126.05.093.06.101.041.068.026.05.033.043.009.025.008h.008l.026.009-.026-.009.009.009h.017v-.152z" fill="#020101"/>
    <path fill-rule="evenodd" clip-rule="evenodd" d="m81.476 39.28.026-.016h-.076v.152h.076l.017-.009-.017.009h.008l.009-.009-.043-.126z" fill="#020101"/>
    <path fill-rule="evenodd" clip-rule="evenodd" d="m81.966 39.044-.118.06-.093.05-.084.05-.06.018-.059.033-.042.009-.025.017h-.009l.043.126h.016l.017-.008.042-.009.06-.033.067-.026.093-.042.101-.059.118-.05-.067-.136z" fill="#020101"/>
    <path fill-rule="evenodd" clip-rule="evenodd" d="m86.624 38.175-.616.194-.524.152-.464.11-.405.093-.354.05-.304.034-.27.009h-.439l-.194-.009h-.169l-.177.026-.168.016-.178.043-.185.067-.211.084.067.136.186-.085.186-.067.151-.043.152-.025h.347l.193.008h.203l.236-.016.27-.017.304-.026.371-.059.405-.084.473-.11.548-.152.608-.202-.042-.127zM80.498 38.378l.008-.025.034-.093.05-.144.068-.227.067-.304.085-.405.076-.498.076-.616h-.127l-.076.616-.076.48-.093.397-.059.313-.067.202-.06.144-.033.084-.008.017.135.059zM82.21 38.37v-.017l-.042-.093-.067-.152-.076-.22-.085-.312-.092-.413-.085-.506-.076-.6h-.135l.076.625.093.498.084.413.085.32.076.237.067.152.043.093.025.042.11-.068zM52.973 44.723l.683-.025.675-.042.667-.085.641-.126.65-.135.633-.186.607-.21.6-.229.59-.278.574-.278.557-.33.531-.337.523-.371.507-.397.48-.413.456-.44.44-.455.413-.48.388-.507.38-.523.337-.532.32-.557.287-.565.27-.59.237-.6.202-.616.186-.633.143-.641.118-.65.093-.666.043-.675.016-.676-.016-.675-.043-.683-.093-.667-.118-.64-.143-.642-.186-.633-.202-.616-.236-.6-.27-.59-.287-.565-.321-.557-.338-.54-.38-.523-.388-.498-.413-.481-.439-.464-.455-.43-.481-.422-.507-.389-.523-.37-.531-.338-.557-.33-.574-.286-.59-.27-.6-.228-.607-.211-.633-.186-.65-.143-.641-.118-.667-.085-.675-.05-.683-.017-.675.017-.675.05-.667.085-.641.118-.65.143-.633.186-.607.21-.6.229-.59.27-.574.287-.557.329-.532.337-.523.371-.506.389-.481.422-.456.43-.439.464-.413.48-.396.499-.372.523-.337.54-.33.557-.278.565-.278.59-.228.6-.203.616-.185.633-.144.641-.118.641-.093.667-.042.683-.025.675.025.676.042.675.093.666.118.65.144.641.185.633.203.616.228.6.278.59.279.565.329.557.337.532.372.523.396.506.413.481.44.456.455.439.48.413.507.397.523.37.532.338.557.33.574.278.59.278.6.228.607.211.633.186.65.135.64.126.668.085.675.042.675.025z" fill="#020101"/>
    <path fill-rule="evenodd" clip-rule="evenodd" d="m47.648 36.083-.076.287-.025.295.017.278.042.296.084.295.119.295.151.296.186.287.211.295.253.278.27.287.295.27.321.262.346.278.363.254.38.244.405.245.413.228.43.22.448.202.447.202.464.169.473.177.48.152.481.144.482.118.489.11.48.092.49.06.481.058.473.034.472.008h.262l.126-.008h.254l.126-.017.135-.008.118-.009.118-.008.135-.017.119-.008.135-.026.118-.008.118-.026.135-.017.118-.025.034.017-.194.118-.203.118-.194.118-.21.11-.195.11-.203.11-.21.1-.211.094-.22.1-.202.085-.22.093-.22.084-.218.076-.22.076-.228.076-.22.068-.227.067-.228.068-.227.05-.228.06-.237.05-.236.042-.228.042-.244.034-.237.034-.244.034-.237.025-.244.017-.237.017-.253.008-.236.009h-.253l-.675-.017-.684-.05-.666-.085-.642-.118-.64-.144-.634-.177-.616-.202-.599-.245-.59-.262-.566-.295-.557-.312-.54-.355-.523-.37-.498-.39-.48-.421-.465-.43-.43-.464-.422-.481-.388-.498-.372-.515-.337-.532-.33-.556-.286-.574-.27-.59-.228-.6-.21-.608-.187-.632-.143-.65-.118-.642-.084-.666-.051-.675-.017-.684.017-.675.05-.675.085-.666.118-.642.143-.65.186-.632.211-.608.228-.599.27-.59.287-.574.329-.557.337-.532.372-.523.388-.506.422-.481.43-.456.464-.439.481-.413.498-.397.523-.371.54-.337.557-.33.566-.278.59-.279.6-.227.615-.203.633-.186.641-.143.642-.118.666-.093.684-.042.675-.025.413.017.405.008.405.034.389.042.396.059.397.059.38.076.38.093.379.11.38.11.37.117.355.127.363.143.346.152.354.169.346.169-.033.017-.119-.017-.11-.009-.109-.008h-.118l-.11-.009h-.346l-.455.009-.43.017-.44.05-.43.051-.422.067-.413.085-.414.11-.405.11-.405.134-.396.152-.38.152-.38.177-.371.186-.363.194-.363.22-.346.219-.337.236-.33.245-.32.261-.312.27-.295.27-.296.296-.287.295-.261.32-.262.313-.253.337-.228.346-.228.346-.21.346-.195.372-.185.37-.178.389-.05.143-.245.87-.135.708-.059.574-.008.447.042.346.059.287.059.228.042.22.101.328.186.338.245.33.27.337.27.337.245.338.194.329.118.337.017.178-.034.151-.076.118-.127.102-.152.076-.16.05-.185.043-.195.025-.202.017h-.54l-.135-.009-.11-.008-.076-.009h-.025l.05.17.043.151.067.16.06.152.075.152.093.152.093.152.126.16-.025.017-.042.008-.068.026-.1.017-.094.025-.11.034-.117.008-.11.009h-.22l-.21-.009-.186-.025-.177-.034-.16-.025-.153-.05-.143-.043-.118-.05-.11-.043-.101-.059-.076-.042-.068-.034-.05-.034-.034-.033-.017-.009-.017-.008.118.312.16.262.186.21.203.178.228.135.236.101.236.076.245.059.236.017.22.025.194-.008.185-.017.152-.008.11-.009.076-.025h.025z" fill="#FFF100"/>
    <path fill-rule="evenodd" clip-rule="evenodd" d="M57.993 42.724h-.472l-.473-.034-.48-.05-.482-.068-.48-.093-.49-.102-.481-.126-.464-.143-.481-.152-.473-.17-.472-.176-.447-.194-.44-.211-.421-.22-.414-.228-.405-.227-.38-.254-.354-.253-.346-.27-.32-.261-.296-.262-.261-.287-.253-.278-.203-.287-.177-.287-.152-.279-.118-.295-.093-.287-.042-.287v-.278l.017-.287.076-.27-.135-.05-.076.295-.034.312.025.278.042.313.085.303.126.296.152.303.194.287.211.304.245.287.287.279.295.286.313.262.354.27.371.253.38.253.405.253.413.228.43.22.456.202.448.203.472.168.464.178.481.151.498.144.481.118.49.11.48.084.498.068.481.059.473.033.472.017v-.151zM60.035 42.563h-.033l-.119.017-.135.025-.11.017-.117.017-.135.017-.119.008-.135.017-.118.009-.118.008-.135.017h-.38l-.126.008h-.262v.152h.262l.127-.008h.253l.126-.025.135-.009.118-.008.118-.017.136-.009.118-.008.135-.025.118-.009.135-.025.126-.017.119-.025h-.034l.05-.127-.025-.017-.008.017h.033z" fill="#020101"/>
    <path fill-rule="evenodd" clip-rule="evenodd" d="m60.077 42.69-.016-.118-.026-.009-.05.127.033.008-.008-.118.067.11.127-.068-.143-.05.016.118z" fill="#020101"/>
    <path fill-rule="evenodd" clip-rule="evenodd" d="M52.88 44.808h.253l.236-.017.253-.017.237-.008.244-.026.237-.017.244-.033.237-.034.253-.034.228-.042.244-.042.228-.06.228-.05.228-.06.228-.058.236-.068.228-.067.228-.076.219-.076.22-.076.219-.084.21-.093.212-.085.219-.1.21-.094.212-.1.21-.11.195-.11.21-.11.195-.127.202-.126.194-.118-.067-.11-.194.118-.203.127-.194.11-.202.1-.203.11-.202.11-.203.101-.202.102-.22.092-.21.093-.22.085-.22.084-.21.076-.22.084-.227.076-.212.06-.227.067-.228.067-.236.05-.228.06-.228.05-.236.043-.237.05-.227.034-.237.025-.244.034-.237.026-.244.017-.237.016-.253.009h-.489v.152zM39.556 31.492l.034.684.042.675.084.675.118.65.144.641.186.641.21.616.228.6.27.598.287.566.338.557.337.54.372.523.396.506.414.473.447.464.456.447.48.413.507.397.531.371.54.346.557.33.566.295.599.261.607.237.608.21.641.178.65.143.641.118.675.085.684.042.675.034v-.152l-.675-.009-.684-.042-.65-.093-.65-.118-.64-.143-.625-.177-.608-.203-.599-.245-.582-.261-.565-.296-.557-.303-.54-.346-.515-.372-.498-.396-.48-.414-.456-.43-.43-.456-.414-.48-.397-.498-.371-.507-.338-.531-.312-.557-.287-.574-.27-.574-.236-.599-.202-.616-.186-.624-.144-.642-.118-.64-.093-.66-.042-.674-.008-.684h-.152zM52.88 18.169l-.675.033-.684.043-.675.092-.641.119-.65.143-.641.186-.608.202-.607.236-.6.27-.565.287-.557.338-.54.337-.531.372-.506.396-.481.414-.456.447-.447.456-.414.48-.396.507-.372.531-.337.532-.338.557-.287.574-.27.599-.227.599-.211.616-.186.641-.144.642-.118.65-.084.674-.042.675-.034.675h.152l.008-.675.042-.675.093-.658.118-.641.144-.642.186-.624.202-.616.236-.599.27-.582.287-.566.313-.556.337-.532.371-.515.397-.506.413-.481.43-.456.456-.422.481-.421.498-.389.515-.371.54-.338.557-.32.565-.279.582-.278.6-.228.607-.21.624-.186.642-.136.65-.126.65-.084.683-.043.675-.008v-.16z" fill="#020101"/>
    <path fill-rule="evenodd" clip-rule="evenodd" d="m58.964 19.797.008-.126-.346-.178-.363-.16-.346-.16-.363-.135-.362-.135-.372-.118-.38-.11-.379-.11-.388-.084-.38-.076-.396-.068-.405-.059-.389-.042-.405-.034-.405-.017-.413-.016v.16l.413.008h.405l.405.034.389.042.388.051.388.068.388.075.38.093.38.102.362.11.372.126.362.126.355.144.354.152.338.168.346.17.017-.127.042.126.16-.05-.152-.076-.008.126z" fill="#020101"/>
    <path fill-rule="evenodd" clip-rule="evenodd" d="M58.904 19.814h.026l.034-.017-.043-.126-.033.008h.017V19.823l.025-.009h-.026z" fill="#020101"/>
    <path fill-rule="evenodd" clip-rule="evenodd" d="M57.993 19.78h.347l.109.009H58.677l.11.008.118.017v-.135l-.119-.008-.11-.017-.109-.017h-.118l-.11-.009h-.346v.152zM47.471 26.666l.177-.372.186-.37.194-.372.194-.346.236-.354.228-.321.253-.337.262-.321.261-.32.27-.288.296-.287.295-.27.32-.278.313-.262.329-.236.33-.245.345-.22.363-.202.363-.202.371-.186.371-.168.38-.152.388-.16.397-.127.405-.11.413-.11.414-.084.413-.068.43-.059.44-.042.43-.017h.455v-.152l-.455.017-.43.026-.44.042-.43.05-.43.068-.414.084-.422.11-.405.11-.413.135-.388.152-.388.151-.389.178-.37.185-.364.194-.362.228-.346.22-.346.244-.33.237-.32.261-.312.279-.296.27-.295.303-.295.296-.262.32-.261.313-.254.337-.227.355-.228.346-.22.354-.202.371-.186.371-.169.389.127.042zM47.42 26.8v.01l.051-.144-.127-.042-.059.143v.009l.135.025z" fill="#020101"/>
    <path fill-rule="evenodd" clip-rule="evenodd" d="m47.176 30.454-.043-.21-.067-.237-.05-.278-.043-.338.009-.447.05-.557.144-.717.244-.87-.135-.024-.236.877-.143.709-.06.582-.008.447.042.355.06.287.067.227.042.22.127-.026z" fill="#020101"/>
    <path fill-rule="evenodd" clip-rule="evenodd" d="m48.804 33.138-.118-.355-.21-.337-.237-.346-.279-.346-.27-.338-.236-.312-.177-.329-.101-.32-.127.025.093.337.202.355.237.337.27.338.278.337.236.33.186.312.127.329.126-.017z" fill="#020101"/>
    <path fill-rule="evenodd" clip-rule="evenodd" d="m46.804 33.864-.067.075h.025l.076.017.11.009.135.025h.346l.194-.017.202-.017.203-.025.186-.042.177-.06.16-.084.143-.11.085-.143.034-.168-.009-.186-.126.017.008.169-.034.126-.067.101-.093.085-.143.067-.152.05-.186.051-.186.017-.202.026-.194-.017h-.481l-.11-.009-.076-.008h-.025l-.06.076.06-.076-.093-.026.034.102.126-.026z" fill="#020101"/>
    <path fill-rule="evenodd" clip-rule="evenodd" d="m47.361 35.197.034-.11-.118-.152-.101-.152-.076-.152-.076-.143-.068-.152-.059-.152-.05-.143-.043-.177-.126.025.042.177.042.16.068.152.067.152.076.169.093.152.101.152.118.177.034-.11.042.127z" fill="#020101"/>
    <path fill-rule="evenodd" clip-rule="evenodd" d="m46.678 35.34.11-.008.126-.017.11-.026.101-.025.093-.025.067-.017.06-.017.016-.008-.042-.127-.025.009-.025.008-.068.025-.101.017-.093.026-.11.033-.11.009-.11.008v.135z" fill="#020101"/>
    <path fill-rule="evenodd" clip-rule="evenodd" d="m44.906 34.75-.11.075.025.017.009.009.034.034.067.042.06.033.075.043.11.05.11.05.126.051.152.043.152.042.16.034.177.033.194.026.211.017.22-.009v-.135l-.22-.008h-.21l-.178-.017-.169-.034-.168-.034-.152-.042-.127-.05-.126-.051-.102-.042-.092-.06-.076-.042-.068-.033-.042-.017-.034-.034-.034-.008v-.017l-.11.076.11-.076-.168-.152.059.228.135-.043z" fill="#020101"/>
    <path fill-rule="evenodd" clip-rule="evenodd" d="m47.716 36.108-.076-.093h-.026l-.076.026-.1.008-.153.008-.185.017h-.194l-.22-.017-.228-.017-.244-.059-.228-.075-.22-.093-.219-.135-.203-.177-.177-.195-.143-.236-.118-.32-.135.042.126.32.16.287.195.211.21.177.245.152.237.102.253.075.236.051.253.025.22.034.194-.025.185-.009.152-.008.127-.017.076-.017h.017l-.076-.093.135.051.042-.127-.118.034.076.093z" fill="#020101"/>
    <path fill-rule="evenodd" clip-rule="evenodd" d="M44.94 33.77v.203l-.034.203-.042.185-.076.186-.076.16-.102.16-.11.153-.117.134-.152.135-.144.119-.169.084-.16.084-.194.085-.177.042-.194.034h-.211v.152l.21-.026.22-.033.194-.043.194-.076.186-.084.169-.11.16-.118.152-.135.143-.152.11-.177.118-.16.076-.186.076-.185.05-.212.026-.219.025-.202h-.151zM42.982 31.813h.21l.195.034.177.042.194.076.16.076.17.101.143.11.152.118.118.152.11.143.1.16.077.17.076.193.042.178.034.194v.21h.151l-.025-.21-.025-.22-.05-.194-.077-.194-.076-.185-.118-.17-.11-.16-.143-.151-.152-.144-.16-.11-.169-.118-.186-.076-.194-.084-.194-.042-.22-.034-.21-.017v.152z" fill="#020101"/>
    <path fill-rule="evenodd" clip-rule="evenodd" d="M41.016 33.77v-.21l.034-.194.042-.178.076-.194.093-.168.084-.16.118-.144.135-.152.127-.118.151-.11.17-.101.16-.076.185-.076.186-.042.202-.034h.203v-.152l-.203.017-.219.034-.21.042-.187.084-.185.076-.16.118-.178.11-.152.144-.135.151-.118.16-.11.17-.084.185-.076.194-.042.194-.034.22-.025.21h.152zM42.982 35.737h-.203l-.202-.034-.186-.042-.185-.085-.16-.084-.17-.084-.151-.119-.135-.126-.127-.143-.118-.152-.084-.16-.093-.161-.076-.186-.042-.185-.034-.203v-.202h-.152l.025.202.034.22.042.21.076.186.085.186.11.16.117.177.144.144.143.143.178.118.16.11.185.084.186.076.211.043.22.033.202.026v-.152zM46.011 32.404h.042l.043-.009.042.009h.042l.034.008.034.009.042.025.05.008.042-.126-.042-.009-.05-.025-.05-.008-.06-.017h-.042l-.042-.009-.043-.008h-.042v.152zM45.125 33.248l.009-.178.059-.169.076-.126.11-.118.126-.127.152-.059.169-.059.185-.008v-.152l-.21.034-.186.05-.178.085-.151.126-.127.144-.101.168-.05.186-.035.203h.152zM46.011 34.074l-.185-.008-.17-.06-.151-.067-.127-.11-.11-.126-.075-.135-.06-.152-.008-.168h-.152l.034.194.05.177.102.169.127.151.151.11.178.093.185.05.211.034v-.152z" fill="#020101"/>
    <path fill-rule="evenodd" clip-rule="evenodd" d="m46.678 33.821-.068.06-.067.05-.085.034-.075.042-.076.034-.102.025-.084.017-.11-.009v.152l.11-.008.11-.025.092-.017.102-.034.101-.05.084-.051.085-.05.067-.085-.084-.085z" fill="#020101"/>
    <path fill-rule="evenodd" clip-rule="evenodd" d="m44.804 30.733.44-.042.354-.11.261-.169.186-.185.127-.194.067-.16.042-.127v-.05l-.017-.043-.05-.127-.076-.16-.127-.186-.186-.194-.261-.152-.33-.126-.43-.042-.227.017-.203.025-.186.059-.177.067-.152.076-.143.076-.135.093-.11.101-.093.085-.092.101-.06.084-.067.076-.042.068-.034.059-.008.034-.017.008v.008l.025.034.034.06.034.058.059.076.067.093.085.093.1.101.11.102.136.084.135.084.16.076.169.068.202.059.203.034.227.008z" fill="#fff"/>
    <path fill-rule="evenodd" clip-rule="evenodd" d="m46.247 29.763-.017-.034-.016.008-.042.11-.068.152-.118.186-.177.177-.237.152-.337.11-.43.033v.152l.447-.06.363-.109.286-.169.194-.202.144-.203.068-.177.042-.126-.009-.102-.025-.034-.068.136z" fill="#020101"/>
    <path fill-rule="evenodd" clip-rule="evenodd" d="m44.804 28.742.422.033.313.119.244.143.17.186.117.177.085.152.042.118.05.093.068-.135h.008l-.042-.119-.076-.177-.143-.194-.194-.21-.287-.161-.338-.118-.439-.06v.153zM43.1 29.737l.034-.025.017-.025.016-.06.043-.05.067-.076.068-.093.076-.093.1-.076.11-.1.119-.102.143-.068.135-.076.177-.059.178-.059.194-.033h.227v-.152l-.227.025-.22.034-.194.05-.177.068-.16.076-.144.084-.143.102-.11.1-.093.093-.101.102-.068.084-.067.076-.042.076-.042.06-.009.033h.009l.084.084z" fill="#020101"/>
    <path fill-rule="evenodd" clip-rule="evenodd" d="M44.805 30.657h-.228l-.194-.034-.186-.059-.177-.059-.144-.076-.135-.076-.126-.093-.11-.092-.084-.093-.085-.093-.067-.093-.068-.067-.017-.06-.05-.059-.009-.033-.025.067-.084-.084-.017.084.025.034.026.05.042.068.067.093.068.084.084.102.11.1.11.102.143.084.143.102.16.076.178.067.202.05.22.035.228.025v-.152zM45.243 28.185l.372.152.253.202.177.236.11.254.05.253.026.194-.017.152.034.11.092-.085.026-.025-.009-.152-.017-.22-.059-.27-.11-.278-.194-.262-.295-.236-.413-.152-.026.127z" fill="#020101"/>
    <path fill-rule="evenodd" clip-rule="evenodd" d="M43.16 28.547h.008l.025-.025.05-.025.068-.034.101-.05.085-.051.118-.042.143-.06.144-.042.152-.042.185-.034.177-.025h.405l.203.025.22.043.025-.127-.22-.042-.228-.025-.21-.026-.195.026-.202.025-.186.025-.152.05-.16.043-.143.05-.118.043-.11.059-.102.042-.059.06-.059.024-.042.026-.008.025.084.084z" fill="#020101"/>
    <path fill-rule="evenodd" clip-rule="evenodd" d="m45.412 30.59.169-.026.169-.042.151-.084.127-.11.101-.118.085-.152.05-.169.017-.177-.017-.169-.05-.177-.085-.143-.101-.127-.127-.11-.151-.093-.17-.042-.168-.017-.177.017-.144.042-.118.093-.101.093-.076.135-.042.152-.034.16-.008.177.008.178.034.16.042.152.076.135.101.11.118.084.144.042.177.026z" fill="#fff"/>
    <path fill-rule="evenodd" clip-rule="evenodd" d="m46.205 29.712-.008.169-.042.152-.085.143-.084.11-.118.092-.144.076-.152.051-.16.009v.151l.186-.033.168-.043.17-.1.134-.119.11-.127.101-.168.042-.177.034-.186h-.152z" fill="#020101"/>
    <path fill-rule="evenodd" clip-rule="evenodd" d="m45.412 28.91.16.009.152.042.144.076.11.101.092.118.085.135.042.16.008.161h.152l-.034-.186-.042-.185-.101-.152-.093-.135-.152-.127-.169-.093-.168-.05-.186-.025v.151z" fill="#020101"/>
    <path fill-rule="evenodd" clip-rule="evenodd" d="M44.788 29.703v-.177l.033-.152.043-.135.067-.11.085-.092.11-.076.117-.042.17-.009v-.151l-.186.025-.17.05-.126.093-.11.11-.092.152-.043.169-.033.168-.017.177h.152z" fill="#020101"/>
    <path fill-rule="evenodd" clip-rule="evenodd" d="m45.412 30.514-.169-.009-.118-.05-.11-.076-.084-.093-.067-.11-.043-.143-.033-.152v-.178h-.152l.017.178.033.177.043.16.092.152.11.118.127.102.169.042.185.033v-.151zM42.273 27.56l.295-.287.33-.244.37-.186.389-.127.422-.092.388-.017.413.008.372.068.354.126.295.177.254.22.194.27.143.304.042.388-.033.422-.135.48.135.043.126-.498.06-.447-.068-.405-.144-.355-.21-.295-.28-.236-.337-.194-.37-.135-.398-.068-.413-.034-.413.051-.414.084-.413.135-.397.203-.346.245-.32.312.11.084zM45.994 30.066l.11-.033.093-.076.05-.11.026-.144-.026-.143-.05-.11-.093-.076-.11-.033-.11.033-.084.076-.05.11-.026.143.026.144.05.11.085.076.11.033zM66.144 31.476l-.008.675-.042.675-.084.658-.127.641-.143.65-.186.616-.203.616-.227.599-.279.582-.278.565-.321.557-.338.532-.37.515-.397.506-.414.48-.422.457-.464.43-.48.413-.499.389-.515.37-.531.347-.557.312-.574.287-.574.27-.599.228-.616.21-.624.186-.641.144-.642.118-.658.084-.675.042-.683.017v.152l.683-.033.675-.043.675-.093.65-.118.641-.143.642-.186.615-.202.6-.228.599-.279.565-.278.557-.346.54-.337.532-.372.506-.388.48-.413.457-.456.447-.456.413-.48.397-.498.371-.54.338-.532.337-.557.287-.574.27-.599.228-.6.21-.607.186-.65.144-.64.118-.642.084-.683.051-.675.025-.676h-.152z" fill="#020101"/>
    <path fill-rule="evenodd" clip-rule="evenodd" d="m52.973 18.304.683.008.675.042.658.093.642.118.64.144.625.185.616.203.6.236.573.27.574.287.557.312.531.338.515.371.498.397.481.413.464.422.422.464.414.481.396.498.371.515.338.54.32.557.279.565.279.574.227.607.203.608.186.624.143.642.127.65.084.649.042.683.008.675h.152l-.025-.675-.05-.683-.085-.675-.118-.641-.144-.65-.185-.641-.211-.608-.228-.608-.27-.599-.287-.565-.337-.557-.338-.54-.371-.532-.397-.506-.413-.48-.447-.456-.456-.448-.481-.413-.506-.397-.532-.371-.54-.337-.557-.338-.565-.287-.6-.27-.599-.228-.615-.21-.642-.186-.641-.144-.65-.118-.675-.084-.675-.043-.683-.033v.152zM39.81 31.476l.008-.675.042-.684.084-.65.127-.65.135-.64.185-.625.211-.608.228-.607.279-.574.278-.565.32-.557.338-.54.372-.515.388-.498.422-.48.422-.465.455-.422.481-.413.506-.397.515-.371.532-.338.557-.312.574-.287.573-.27.6-.236.615-.203.625-.185.641-.144.641-.118.659-.093.675-.042.675-.008v-.152l-.675.034-.675.042-.675.084-.65.118-.642.144-.64.185-.617.211-.599.228-.6.27-.573.287-.557.338-.531.337-.532.371-.506.397-.481.413-.456.448-.447.455-.422.481-.388.506-.371.532-.338.54-.337.557-.287.565-.27.6-.237.607-.202.608-.186.64-.143.65-.118.642-.093.675-.042.683-.034.675h.16z" fill="#020101"/>
    <path fill-rule="evenodd" clip-rule="evenodd" d="m52.973 44.647-.675-.017-.675-.042-.659-.084-.641-.118-.641-.144-.625-.185-.616-.211-.599-.228-.573-.27-.574-.287-.557-.312-.532-.346-.515-.371-.506-.389-.48-.413-.456-.43-.422-.456-.422-.481-.388-.506-.372-.515-.337-.532-.32-.557-.28-.565-.278-.582-.228-.6-.21-.615-.186-.616-.135-.65-.127-.641-.084-.658-.042-.675-.009-.676h-.16l.034.675.042.676.093.683.118.641.143.642.186.65.202.607.237.599.27.6.287.573.337.557.338.531.37.54.389.498.422.481.447.456.456.456.48.413.507.388.532.372.531.337.557.346.574.278.6.279.598.228.616.202.641.186.642.143.65.118.675.093.675.043.675.033v-.152z" fill="#020101"/>
    <path d="M116.52 54.579h3.729v1.924h-3.729v-1.924zm.759-4.438h-.599l-1.848-.827v8.446l1.688-.228v-.75h3.729v.902l1.772-.194v-6.717c.287-.177.431-.312.431-.388 0-.067-.068-.135-.194-.21l-1.35-.853-.726.827h-2.194c.506-.354.92-.684 1.224-.979.261-.05.388-.143.388-.278 0-.11-.118-.194-.338-.245l-1.738-.312-.245 1.806zm-.759 2.278h3.729V54.3h-3.729v-1.882zm0-2h3.729v1.721h-3.729V50.42zM176.304 54.579h3.729v1.924h-3.729v-1.924zm.759-4.438h-.599l-1.848-.827v8.446l1.688-.228v-.75h3.729v.902l1.772-.194v-6.717c.287-.177.431-.312.431-.388 0-.067-.068-.135-.194-.21l-1.35-.853-.726.827h-2.194c.506-.354.92-.684 1.223-.979.262-.05.389-.143.389-.278 0-.11-.119-.194-.338-.245l-1.738-.312-.245 1.806zm-.759 2.278h3.729V54.3h-3.729v-1.882zm0-2h3.729v1.721h-3.729V50.42zM191.695 48.883l1.215 1.021-.228.27h-4.666c-.498 1.063-1.03 1.933-1.612 2.6l-.084.092.354.06c.118.033.177.067.177.109 0 .084-.076.16-.228.245v3.484h1.958v-3.569h-1.451l-.118-.27h1.569V50.52l1.831.152c.219.026.329.093.329.203 0 .093-.143.202-.43.32v1.73h.354l.793-.987 1.14.987-.203.27h-2.084v3.57h.742l.827-.98 1.19.98-.245.278h-6.202v.54l-1.645.16v-3.662c-.405.304-.835.582-1.3.835l-.118-.118a12.788 12.788 0 0 0 1.89-2.776c.262-.531.49-1.147.684-1.856h-2.295l-.118-.27h2.48c.127-.498.245-1.03.346-1.612l2.059.54c.144.05.22.118.22.203 0 .084-.144.177-.431.27l-.253.59h2.726l.827-1.004z" fill="#000"/>
    <path d="M153.099 16.135c-.068.346.278.903.211 1.257.143.346-.211.625.211.836.067.135.278.346.143.49-.143.278-.7.556-.278.902-.068.346-.068.7-.279.979 0 .557-.489.903-.489 1.325.143.21-.211.422-.278.624-.211.422 0 .979-.49 1.325-.211.278.068.835-.278.979 0 .346-.422.421-.49.624-.211 0-.489.068-.557.279.144.7-.835.835-1.181 1.257-.278.135-.278.624-.768.557-.135.067-.211.143-.346.067-.067-.067-.067-.422.068-.422.211-.067.067-.21 0-.346.143-.768.903-1.113 1.114-1.881.624-.557.767-1.325 1.257-1.95.413-.345.067-.835.489-1.18.49-.212-.067-.769.422-1.047-.143-.422.346-.49.414-.836-.135-.768.767-1.324.489-2.092.067-.346.278-.768 0-1.047.067-.067.135-.21.067-.346-.278 0-.278-.346-.421-.489.067-.911.827-.143.97.135zM142.863 16.413c.557-.067.768.903 1.393.422.557-.067.211.346.489.625.144.835-.835 1.46-.346 2.227 0 .557-.624.98-.489 1.671-.144.135 0 .211-.068.279-.413.422-.211.835-.278 1.392.211.21-.068.422-.068.557-.278.346-.135.903-.135 1.325-.067.346-.211.767-.143 1.046.422.413.7.903 1.181 1.181.211.346.279.903.211 1.258-.278.135-.489.767-.903.413-.211-.135-.489.143-.7.143-.211.422-.557.836-.346 1.182 0 .624.278 1.257 0 1.814-.143.49.346.624.211.97.211.279-.279.49.067.7.068.49-.211.98.068 1.393 0 .211-.068.413.067.557-.143.135-.421.49-.211.768.625.413-.413.768.068 1.257.346.211-.135.346 0 .49-.135.346-.278.767 0 .978.211.414-.068.836.211 1.114.143.422-.489.625-.068.903-.346.422.422.557.135.979-.067.346.068.903-.135 1.249.211.422 0 .979.279 1.325 0 .421-.211.767-.068 1.18-.143.347-.143.701-.278 1.047.346.279-.144.557.211.836-.135.421.143 1.046-.279 1.46-.067.21-.211.413-.421.489-.135 0-.135.143-.211.21v.068c-.135-.21-.422-.346-.768-.346-.422-.49-.903-.903-1.258-1.325.135-.489.836-.21.768-.835.557-.135-.135-.49.279-.692.067-.624-.279-1.392.143-2.017.135-.346-.143-.7.135-.978-.346-.49-.135-1.114-.135-1.671.346-.903-.211-1.95.211-2.852.279-.49-.211-1.114.068-1.67-.144-.49-.144-1.182-.422-1.74-1.738.625-1.46 2.718-2.852 3.62-.135.49-.768.693-.701 1.182-.211.279-.557.279-.768.413-.624.558-1.046 1.604-2.016 1.815-.211.143-.557.21-.768.143.7-.903 1.536-1.949 2.295-2.784.7-.768 1.046-1.671 1.603-2.506 0-.557.701-.903.836-1.46.624-.557.624-1.325 1.324-1.882.068-.557.279-1.181.768-1.603-.067-.346.144-.7.144-1.114-.068-.422.557-.7.211-1.181.143-.211.278-.557.143-.836-.422-.557-.979.068-1.46.068-.211-.068-.346.21-.489.135-.557.21-1.257.067-1.738.557-.279 0-.701 0-.903.278 0 .557-.625.279-.903.625-.7-.211-1.181.421-1.882.421-.422-.624-1.46-.421-1.603-1.257.768-.422 1.882-.346 2.717-.768 1.603-.422 3.063-1.114 4.455-1.949.557-.067 1.182-.143 1.604-.49.278-.421 0-.835.346-1.18-.144-.423-.211-.904-.068-1.393-.278-.422.144-.903-.211-1.325.144-.835-.557-1.814.144-2.573-.211-.422-.211-.97-.346-1.393.135-.278-.144-.489-.279-.624.211-.346.211-.7.279-1.114-.279-.143-.279-.49-.346-.768.346-.143.211-.7.7-.624.532-.304.743.531 1.299.185zM130.882 21.493c.21.211.421.49.767.625.144.346.557.624.346 1.046-.143.422-.7.49-.903.835-.489.557-1.392.768-1.392 1.604-.557.835-1.325 1.46-1.949 2.16-.278.067-.624.49-.903.135-.135-.557.557-.768.7-1.258 0-.556.068-.902.49-1.324.211-.279.557-.625.489-.98.135-.345.211-.767.211-1.18-.067-.211-.278-.346-.278-.557-.211-.211-.979-.422-.625-.97.211-.558.768 0 1.114-.144.616.22 1.241.008 1.933.008zM162.499 22.05c-.067.49.278.903-.143 1.257l-.49.346c-.346-.346-.768-.421-1.181-.278-.211.346-.557.067-.836.143-.489 0-.691.692-1.257.557-.135.068-.211.135-.278.135-.422-.135-.768.211-1.114.211-.7.068-1.603.692-2.16-.067.135-.068.211-.346-.068-.422-.067 0-.143.143-.143 0 .067-.211.489-.135.624-.414.49.068.836-.422 1.249-.556.557 0 1.046-.49 1.603-.692 0-.211.279-.211.279-.557.557-.144 1.325.21 1.881-.279.709.06 1.621-.076 2.034.616zM159.782 30.48c-.068.278.135.7-.068.903 0 .067.135.135.068.278-.489.624-1.181 1.114-1.603 1.67-.279.144-.768.068-.701.558-.346.49-.835.768-1.324 1.114-.068-.279.346-.49.278-.903.557-.346.346-1.114.835-1.536-.067-.279.279-.49 0-.768.068-.21 0-.557.211-.768.068-.413-.346-.768.068-1.114.067-.143.413-.278.278-.624.692 0 1.46.279 1.882.979l.076.21zM153.099 31.661c-.278.7-1.114.557-1.257 1.325-.346.067-.279.557-.701.49-.422.421-.767.835-.7 1.392-.211.346-.557.21-.835.067-.144-.21-.144-.49-.422-.7-.211-.346-.557-.625-.422-1.182-.211-.21 0-.556.067-.767.557-.211 1.325.21 1.671-.422.625.21 1.046-.346 1.603-.49.296-.48 1.131-.405.996.287z" fill="#E60012"/>
    <path d="M131.514 34.378c.346.135.557.49.768.768-.211.143.068.422-.067.557-.903.49-1.325 1.392-2.017 2.093.067.7-1.046.767-.624 1.392-.49.624-1.114 1.249-1.46 1.95.211.345-.279.623.067.902-.278.278 0 .624-.067.903.7 1.114 1.535 2.16 2.295 3.341.143 1.114 1.536 2.017.979 3.207.211.413-.422 1.046.211 1.325.211.278.557.143.835.067.135-.135.414.068.692.068.143.135.422.21.624.135.068-.068.279-.135.422 0 .211.346.701 0 .979.346.279 0 .625.143.903.143.489.067.97.624 1.527.557.768.346 1.393.557 2.228.422.278 0 .489.422.768.143.278.211.557 0 .835.279.836.21 1.671-.135 2.506.135.557.143 1.114.143 1.604.278.345-.067.835-.278 1.181-.067.211.21.422.422.692.278.211-.21.278.144.489.068.279 0 .701-.068.979.135a4.36 4.36 0 0 1 1.325 0c.557-.068 1.114.067 1.671.278.413.135.902.768 1.459.346.979.624 2.228.211 3.207.624.835.212 1.603.212 2.506.212.489.278 1.257.21 1.738.143.422-.068.836-.279 1.181.067.692.068 1.393-.135 2.161 0 1.046 0 2.295.144 3.274-.135.489.135 1.046.135 1.535.068.279.278.692-.068.903.135.625-.211 1.114.346 1.814.143.346.135.768.135 1.182.135.211.414-.49.414-.279.768l-1.046.135c-.279.211-.557.49-.835.49-.211.557-1.047.278-1.114.902-.422.279-.903-.143-1.182.347-.067 0-.211.067-.211.143-.691.21-1.603.21-1.738.979-.768-.211-1.257.768-1.881.278h-1.249c-.49-.346-.903-.21-1.258-.624-.489-.068-.835-.346-1.257-.068-.346-.346-.768.068-1.046-.346-.211.068-.422 0-.557.135-.489-.49-1.257 0-1.738-.557-.279.068-.422-.135-.625-.278-.557.068-1.114-.346-1.603-.279-.346-.489-.903-.345-1.325-.767-.346.067-.692.422-.979 0-.902.067-1.949-.211-2.852-.135-.557-.135-1.046-.346-1.535 0-.49.067-1.047.21-1.46-.068-.068-.143.211-.278-.068-.422-.278.211-.413-.143-.7 0-.278-.557-.97-.278-1.325-.768-.557-.067-1.392 0-1.671-.556-1.181 0-2.227-.625-3.341-.768-.278-.211-.7-.144-1.046-.144-.768.279-1.536-.278-2.296-.067-.767.21-1.324-.557-2.016-.49-.625.068-.768-.835-1.393-.557-.278-.346-1.046.346-.978-.413-.557-.144-1.325-.068-1.882-.068-.211 0-.422-.346-.557-.143-.211.067.068.422-.278.346 0-.211-.279-.279-.422-.422-.625.278-1.182.49-1.814.557a2.882 2.882 0 0 0-.979.624c-.346.068-.701.068-1.047.068-.413-.625-1.324-1.047-1.113-1.95.902-.134 1.881.144 2.717-.345.278.21.557-.144.902-.068.211.068.49-.067.692-.21.068-.701.836-.49 1.258-.904.143-.143.067-.422 0-.557-.135-.21.143-.421.067-.691-.067-.558-.346-1.258-.278-1.882 0-.49-.422-.903-.49-1.46-.211-.49-.624-.768-.768-1.325-.346-.278-.624-.692-.978-.979-.144-.556-.144-1.113-.144-1.738.346-.624.211-1.536.625-2.16-.068-.624.489-.903.624-1.46 0-.278.557-.278.346-.624.211-.135.143-.422.211-.625-.144-.21 0-.624-.346-.624-.7.067-1.325.422-1.949.624-.836-.278-1.325.7-2.017.211-.067.068-.143.068-.211 0-.067-.346.49-.346.49-.768.278-.21.7-.067 1.046-.21.624-.212 1.46-.279 2.017-.768.691.067.691-.836 1.392-.903.346.143.7 0 .97-.279.447.355 1.215-.346 1.215.422z" fill="#E60012"/>
    <path d="M155.47 36.673c.422.49.903 1.114 1.527 1.114.346.144.625.979 1.258.625.7-.211 1.535-.211 2.092-.768h.279c-.068.768.979.067.835.835.346.135.346.49.557.7 0 .279-.346.346-.489.346-.211-.21-.422.144-.625.144-.7-.211-1.257.346-1.814.49-.422-.136-.903-.068-1.257-.068l-.279.346c.49.143-.143.557.414.7 0 .557.143 1.046-.135 1.536.211.346-.346.768.135.979-.135.21.143.346.143.557-.211.624-.067 1.392 0 1.949-.346.49.135 1.046-.278 1.392-.068.49-.144.979-.211 1.46-.414.7-1.114 1.325-.979 2.16-.211.346-.414-.135-.624-.135-.279-.49-.903-.346-1.46-.557h-.279c.068-.21-.067-.422-.211-.624-.624.067-.97-.49-1.535-.557-.068-.211-.346-.279-.422-.557.979-.422 2.371.49 3.206-.557.135-.557.903-.7.768-1.325.211-.135 0-.278.143-.422.557-1.181.625-2.65.557-3.966-.211-.557.279-1.535-.624-1.881-.211.067-.768-.144-.7.21-.49.346-1.047-.21-1.536.279-.625 0-1.114.557-1.814.422-.49.21-1.047.068-1.325.49-.346-.068-.557-.347-.979-.347-.489-.21-.067-.556-.211-.97 1.046-.143 2.084 0 2.996-.422.768-.21 1.392-.49 2.16-.624.422-.068.903-.144 1.181-.557-.067-.625-.979-.979-.835-1.739-.068-.489-.979-.7-.49-1.113.507-.17.439.455.861.455z" fill="#E60012"/>
    <path d="m13.651 51.01-.202.278h-1.207v1.283h.27l.709-.853 1.046.853-.194.278h-1.84v1.19l.591-.684 1.013.819-.186.27h-3.637v.937h2.354l.7-.861 1.064.86-.202.27h-3.907v1.798l-1.561.194v-1.983h-3.4l-.11-.27h3.51v-.937H5.34l-.119-.27h1.013V52.85H4.951l-.118-.278h1.401v-1.283h-.785l-.11-.278h6.6l.7-.819 1.012.819zm.473-1.52-.203.27h-2.295v.904l-1.612.202V49.77h-1.56v.903l-1.562.203v-1.097H5.095l-.118-.27h1.915v-1.173l1.553.093c.21.033.32.092.32.177 0 .076-.11.16-.312.228v.666h1.561v-1.173l1.587.093c.219.034.329.093.329.177 0 .076-.11.16-.313.228v.667h.743l.7-.86 1.064.86zm-5.67 1.798H7.71v1.283h.742v-1.283zm0 2.894V52.85H7.71v1.333h.742zm2.235-2.894h-.666v1.283h.666v-1.283zm-.675 2.894h.667V52.85h-.667v1.333zM40.4 48.36l1.088.692c.102.076.16.152.16.203 0 .075-.109.16-.32.236v.86l-.371.051.531.38-.118.27h-.531l.65.472-.119.27h-.692l.751.49c.093.067.144.126.144.177 0 .06-.093.127-.27.194v.86l-.169.035c.397.286.608.43.608.43.092.059.143.126.143.21 0 .043-.042.077-.11.102l-.16.093c-.034 1.282-.11 2.152-.236 2.607a.827.827 0 0 1-.44.523c-.303.102-.742.152-1.307.152a2.979 2.979 0 0 0-.076-.59.628.628 0 0 1-.076.126.412.412 0 0 1-.312.152.492.492 0 0 1-.346-.143c-.11-.076-.169-.254-.194-.507-.017-.093-.042-.16-.068-.227-1.156.38-2.202.7-3.096.962-.043.151-.076.227-.119.227-.059 0-.118-.067-.194-.194l-.472-.979c.633-.033 1.29-.059 1.991-.1v-.6h-.666v.186l-1.089.16v-1.662a7.142 7.142 0 0 1-.59.093c-.06.219-.119.421-.178.607-.304.87-.818 1.646-1.535 2.371l-.152-.118c.21-.54.37-1.156.48-1.89.077-.658.127-1.62.144-2.877v-4.405l1.46.616h5.299l.557-.515zm-5.308 5.603c.169-.093.33-.203.481-.33l-.76.119v-1.915h-.041l-.11-.27h1.358l.43-.473h-1.636l-.118-.27h1.367l.43-.472.667.472-.118.27h-.498l.65.472-.11.27h-2.042l.902.313h4.05l.389-.346H38.83l-.11-.27h1.604l.43-.473h-1.84l-.075-.21a.821.821 0 0 1-.194.092v.86l-1.41.203v-1.603l1.41.101c.227.017.346.076.346.17 0 .05-.034.092-.068.117H40.4l.32-.346-.91.11v-.228h-5.266v2.337a8.919 8.919 0 0 1-.177 1.688c.278-.143.531-.27.725-.388zm-.548-3.924h5.265v-.903h-5.265v.903zm2.11 4.101h-.321c-.279.093-.532.16-.743.203-.118.033-.236.05-.346.067l.608.203h.801v-.473zm0 1.359v-.616h-.667v.616h.666zm0-2.296v-.776h-.591v.776h.59zm3.687.456-.33.05v-.235H36.84l.363.126c.101.042.152.093.152.152 0 .05-.05.093-.144.11h2.945l.186-.203zm-2.008-.456v-.776h-.591v.776h.59zm1.046 3.199a.324.324 0 0 1 .034.042h.616c.126-.6.202-1.367.21-2.295h-2.26c.041.033.067.059.067.075 0 .077-.093.152-.27.228v.16h.801l.372-.32.776.523c.076.06.118.11.118.152 0 .05-.076.101-.228.152v.86l-.827.119c.287.101.473.202.59.304zm-1.595-.903h.743v-.616h-.743v.616zm.388.472.042-.076c.11.042.211.068.313.101v-.21h-.743v.531a8.6 8.6 0 0 0 .658-.042 1.548 1.548 0 0 0-.27-.304zm1.84-2.767v-.777h-.591v.776h.59zM69.638 51.212l-.194.27h-1.646v3.67l-1.637.237v-1.097H65.15v1.181l-1.52.194v-4.176h-.936v5.037h4.76l.776-.979 1.139.98-.203.27h-6.48v.59l-1.561.228V51.49h-.827l-.11-.27h.937v-2.616l1.56.101c.262.034.389.093.389.169 0 .11-.127.22-.388.32v2.026h.936v-2.852l1.52.1c.26.018.387.077.387.17 0 .11-.126.21-.388.312v2.27h1.013v-2.852l1.662.118c.27.017.414.093.414.194s-.152.21-.43.312v2.228l.75-.903 1.089.894zm-3.485.27H65.14v2.54h1.013v-2.54zM91.315 48.782c.144.042.211.101.211.203 0 .1-.126.194-.388.27-.388.801-.76 1.442-1.097 1.915l.447.076c.118.042.177.067.177.11 0 .076-.076.16-.227.236v5.898l-1.57.152v-5.088c-.278.304-.574.574-.86.827l-.152-.068c.38-.742.7-1.51.97-2.312.177-.599.38-1.493.59-2.65l1.9.431zm4.388 1.84a.615.615 0 0 1-.498-.237c-.118-.143-.177-.312-.202-.531a.96.96 0 0 0-.144-.481c-.067-.152-.22-.321-.447-.507l.076-.151c.802 0 1.316.11 1.561.32.261.22.388.49.388.81a.8.8 0 0 1-.21.549l-.052.05 1.08.726-.151.228-2.97.531c.1.794.236 1.41.438 1.848.279.684.81 1.317 1.587 1.916l.818-1.452.186.076c-.177.684-.27 1.114-.27 1.291.034.465.152.76.346.903a2.048 2.048 0 0 1-.27.768c-.177.236-.372.363-.59.363-.364 0-.803-.169-1.317-.506-.71-.44-1.317-1.182-1.84-2.253-.278-.59-.49-1.494-.65-2.692l-1.687.304-.203-.279 1.848-.337a43.946 43.946 0 0 1-.253-3.519c1.24.034 1.873.042 1.873.042.118.017.178.068.203.152 0 .076-.05.152-.127.194l-.261.118c0 1.064.042 1.966.118 2.726l1.249-.228.531-.768a.456.456 0 0 1-.16.026z" fill="#727171"/>
</svg>
