<svg width="159" height="159" viewBox="0 0 159 159" fill="none" xmlns="http://www.w3.org/2000/svg">
    <g clip-path="url(#h6acjwpzoa)">
        <path d="M161.089-2.089H-1.896v162.985H161.09V-2.089z" fill="#F4CC22"/>
        <path d="M17.447 83.91v4.178h3.83v2.476h-2.553V96.6l2.515.039v2.979l-4.565.58 1.431 8.085 6.538-2.63 5.261 6.731 7.892-6.306-.386 3.211 3.597 1.703 16.442.657 1.006-8.201 1.044 2.205 1.664-1.548-.387 10.639h7.35v-13.076H75.4v15.32h8.511v-15.32h10.252s.116 4.449-2.901 8.047l5.61 5.493 2.01-2.824.272 1.083 16.248-1.16.89 2.63 7.156-3.945-2.862-6.732 7.853 1.277-.503 2.398 10.174 1.935 1.819-7.738-1.432-.27.929-3.637 7.582-2.244 2.824-7.466-5.3-5.57h-12.457l-6.963-9.866v10.523l-9.478.116V73.658s-4.294 7.041-9.788 8.898l-5.957.89-4.99-.464-5.108-2.747-4.139-4.526-2.476-5.997h-.387l-2.205 5.61-4.178 4.526-6.267 3.172h-6.19l-4.836-1.237-4.178-2.786-5.416-7.08 1.819 12.07H41.47l-.85-11.992-3.598 11.915-5.88.078-3.405-10.64-.967 10.64h-9.324v-.078z" fill="#000"/>
        <path d="m132.152 65.844 10.716-15.397h-12.573l-5.107 7.97v-9.053h-9.4V59.73a17.32 17.32 0 0 0-15.9-10.367c-8.202 0-15.088 5.725-16.868 13.385-1.78-7.66-8.665-13.386-16.867-13.386-7.62 0-14.082 4.914-16.403 11.722l-1.315-11.721H37.99l-3.753 11.76-3.675-11.8H19.73L15.745 83.91h11.026l.967-10.638 3.404 10.638h6.46l3.096-10.638.773 10.638h10.833l-.89-8.124c3.056 4.952 8.51 8.24 14.74 8.24 8.2 0 15.087-5.725 16.866-13.385 1.78 7.66 8.666 13.385 16.868 13.385 7.118 0 13.192-4.255 15.9-10.368v10.059h9.787v-9.71l5.842 8.975h13.23l-12.495-17.138zM66.115 80.196c-7.467 0-13.54-6.073-13.54-13.54 0-7.466 6.073-13.54 13.54-13.54 7.466 0 13.54 6.074 13.54 13.54 0 7.467-6.074 13.54-13.54 13.54zm33.773 0c-7.467 0-13.54-6.073-13.54-13.54 0-7.466 6.073-13.54 13.54-13.54 7.466 0 13.54 6.074 13.54 13.54 0 7.467-6.074 13.54-13.54 13.54z" fill="#fff"/>
        <path d="M22.786 51.917h6.383l5.068 15.745 5.378-15.745h6.46l3.791 29.401h-6.499L41.55 64.374h-.078l-5.996 16.944h-2.592l-5.725-16.944h-.078l-2.089 16.944H18.57l4.217-29.401zM131.339 52.845h8.047l-9.323 12.999 10.832 15.474h-8.434l-8.395-12.766h-.077v12.766h-6.499V51.917h6.499v12.147h.077l7.273-11.219zM66.115 51.53c-8.55 0-15.513 6.925-15.513 15.513 0 8.55 6.924 15.474 15.513 15.474 8.55 0 15.513-6.924 15.513-15.474A15.487 15.487 0 0 0 66.115 51.53zm-3.869 23.947v-16.48l11.49 8.2-11.49 8.28zM115.478 65.96c-.155-2.128-.696-4.1-1.625-5.92v-.038c-.154-.27-.309-.58-.464-.85v-.04c-2.708-4.565-7.66-7.62-13.347-7.62a15.355 15.355 0 0 0-11.103 4.719c-.154.155-.31.348-.464.503l-.038.039c-.155.154-.31.348-.426.502 0 .04-.039.04-.039.078-.116.155-.27.348-.387.503-.038.038-.038.077-.077.077-.116.155-.232.348-.348.503-.039.039-.039.077-.078.116-.116.155-.193.31-.309.503-.039.039-.039.116-.077.155-.078.154-.194.31-.271.503-.039.077-.078.116-.078.193l-.232.464a.55.55 0 0 0-.077.233c-.077.154-.155.309-.194.464-.038.077-.077.155-.077.232-.077.155-.116.31-.155.464a.717.717 0 0 0-.077.27c-.039.156-.116.272-.155.426-.038.117-.077.194-.077.31-.039.155-.078.27-.116.425-.039.117-.039.233-.078.349-.038.116-.077.27-.077.386-.039.116-.039.271-.077.387-.039.116-.039.232-.078.387-.038.155-.038.271-.038.426 0 .116-.039.232-.039.348 0 .155-.039.348-.039.503 0 .077 0 .193-.038.27 0 .271-.04.542-.04.774 0 1.084.117 2.128.31 3.134 1.432 7.08 7.699 12.38 15.165 12.38 8.55 0 15.514-6.925 15.514-15.475-.155-.387-.155-.735-.194-1.083zm-17.331 9.517h-3.405v-16.48h3.405v16.48zm6.925 0h-3.444v-16.48h3.444v16.48z" fill="#C10524"/>
        <path d="M22.167 87.353c-.928 0-1.625.039-2.437.116v-4.062c.851.116 1.625.155 2.67.155h4.177c1.045 0 1.819-.039 2.631-.155v4.062a19.473 19.473 0 0 0-2.282-.116h-.349v4.101h.271c.89 0 1.2-.039 1.702-.116v3.946c-.619-.039-1.16-.077-1.702-.077h-.27v3.597c.812-.31 1.276-.464 2.63-1.005v3.829c-1.238.619-1.238.619-4.913 2.051-1.045.425-2.63.967-3.172 1.16-.62.194-.658.194-1.161.465l-.851-4.372c.89-.116 1.315-.232 3.327-.812v-4.913h-.503c-.774 0-1.315.038-1.934.116v-3.985c.619.077 1.16.116 2.05.116h.426v-4.1h-.31z" fill="#fff"/>
        <path d="M38.183 94.665c-.077 3.752-.232 4.913-.696 6.731-.542 2.012-1.625 3.792-3.327 5.378-.967.889-1.741 1.431-3.443 2.476-1.006-1.509-1.78-2.438-2.94-3.443 2.824-1.354 4.758-3.095 5.532-4.914.657-1.431.85-3.056.85-6.228-1.044 0-1.624.039-2.436.155v-4.217c.812.116 1.508.155 2.746.155h10.059c1.508 0 2.592-.039 3.25-.155v4.217c-.852-.078-1.703-.155-3.018-.155h-1.2v9.71c0 .348.117.464.58.464.388 0 8.434.078 8.512-.232.077-.464.155-1.663.155-2.746 0-.233 0-.658-.04-1.2 1.2.658 2.09 1.045 3.444 1.354-.077 3.521-.27 4.836-.851 5.726-.58.89-9.4.967-11.838.967-1.625 0-2.553-.155-3.211-.542-.658-.386-.851-.928-.851-2.398V94.626h-1.277v.039zM32.728 83.369c.968.116 1.819.154 3.328.154h7.35c1.276 0 2.244-.038 3.327-.154V87.7c-.774-.116-1.741-.154-3.25-.154h-7.466c-1.354 0-2.553.038-3.327.154V83.37h.038zM62.246 103.253c0-1.741 0-1.857.039-2.862-.62.928-1.122 1.547-1.973 2.437-.658-2.399-1.084-2.902-2.708-4.488 1.78-1.818 4.14-4.178 5.416-6.925.89-1.857 1.431-3.443 1.624-4.68l4.333 1.16c-.116.348-.116.348-.502 1.354a91.14 91.14 0 0 1-1.935 4.642v15.707c0 1.625.039 2.592.155 3.52H62.09c.116-1.006.155-2.011.155-3.52v-6.345zM77.41 90.216c0-1.625-.038-3.869-.192-5.03h5.338c-.154 1.045-.657 3.405-.657 5.03v4.836h3.21c1.587 0 10.678-.039 11.413-.155v4.642c-1.122-.116-10.02-.154-11.297-.154h-3.288v9.671c0 1.896.039 4.643.194 5.726h-4.913c.154-1.083.193-3.985.193-5.726v-9.633h-2.63c-1.239 0-3.599 0-4.643.078v-4.643c.928.117 3.133.233 4.642.233h2.63v-4.875z" fill="#fff"/>
        <path d="M99.54 107.818c.928.078 2.437.155 3.945.155.503 0 .774 0 1.78-.039.232-.154.232-.154.464-.348-1.547-1.431-2.824-2.437-4.681-3.52l2.553-2.631c.813.542 1.277.89 1.432 1.006.658-.658.89-.851 1.393-1.47h-2.747c.039-.348.077-.735.077-1.354v-5.03h-2.128c-.348 0-.541.04-1.005.117v-2.902c.27.039.657.078.967.078h2.128v-1.006h-3.637v2.437c0 4.14-.232 9.207-.542 12.07-.193 1.78-.541 3.443-1.044 4.836-.31.735-.967 1.779-1.586 2.863-1.238-1.432-2.321-2.631-3.598-3.676.928-1.702 2.012-3.172 2.36-5.493.232-1.973.464-6.654.464-11.76 0-2.051-.039-3.444-.155-4.643 1.122.077 2.244.155 3.714.155h6.499v-.155c0-.58 0-4.526-.116-4.952h4.681c-.077.464-.116 4.333-.116 5.107h6.732c1.431 0 2.321-.039 3.249-.155v3.482c-.889-.039-1.624-.078-3.017-.078h-1.664v1.045h2.902c.464 0 .812-.039 1.354-.077v2.824c-.542-.039-.929-.039-1.354-.039h-2.902v4.758c0 .619 0 1.006.078 1.47h-3.25c.039-.541.077-.851.077-1.547v-4.681h-1.16c-.735 0-.967 0-1.432.039V91.88c.658.038.89.077 1.393.077h1.199v-1.045h-6.073v1.006h1.276c.813 0 1.045 0 1.432-.038v2.824a16.825 16.825 0 0 0-1.432-.078h-1.276V100.468c.154-.232.232-.348.425-.658l3.443 1.354c-1.044 1.277-1.702 2.051-2.94 3.289.348.309.503.425.851.735 2.399-2.322 3.25-3.289 3.753-4.217l4.023 1.509c-.928 1.044-3.984 3.83-5.764 5.3 1.896-.155 2.863-.233 4.526-.465-.271-.58-.464-.889-1.006-1.857l3.869-1.624c1.47 2.282 2.321 3.946 3.404 6.615l-4.178 2.205c-.348-1.044-.464-1.315-.735-2.205-4.1.735-6.731.967-14.662 1.393-.657.038-.967.038-1.431.116l-.813-4.14zm3.636-12.573c-.039.232-.039.348-.039.697-.077 2.708-.271 3.559-1.16 5.338-.774-.735-1.161-.967-1.935-1.354.658-1.199.929-2.437.929-3.791 0-.31-.039-.348-.078-.928h2.283v.038zm4.139 4.526c.039-.115.039-.115.039-.348 0-.116.039-.58.039-.85V95.98c0-.232 0-.232-.039-.735h2.05c-.038.348-.038.465-.038.697v2.63c0 .465 0 .735.038 1.16h-2.089v.04zm4.913-4.526c0 .155-.038.271-.038.735-.039 2.438-.232 3.327-1.045 4.72-.696-.735-1.006-.967-1.741-1.354.581-1.006.851-2.012.851-3.288 0-.31-.038-.503-.077-.813h2.05zm6.461.116c-.039.349-.039.658-.039.968v1.779c0 .348.039.387.271.387.31 0 .348-.116.348-.851v-.967c.619.425.89.541 1.509.735-.039 2.824-.232 3.133-2.205 3.133-1.78 0-2.128-.232-2.128-1.392v-2.67c0-.232-.038-.58-.077-1.083h2.321v-.039zM132.5 99.037c.155-.426.155-.465.348-1.316.464-1.973 1.045-3.056 2.167-3.946.851-.657 1.083-.774 3.288-1.547 1.509-.542 2.089-1.006 2.321-1.973.31-1.354-.464-2.36-2.089-2.747-1.238-.27-2.205-.039-2.94.735-.387.387-.58.774-.89 1.625l-5.455-1.818c.735-2.012 1.432-3.018 2.747-3.985 2.012-1.509 4.642-1.934 7.776-1.238 4.99 1.16 7.544 4.333 6.654 8.279-.387 1.74-1.238 2.979-2.631 3.83-.812.464-1.122.619-3.83 1.625-1.315.502-1.895 1.16-2.205 2.475a7.827 7.827 0 0 0-.154 1.122l-5.107-1.121zm5.416 3.791-1.238 5.416-6.693-1.238 1.238-5.416 6.693 1.238z" fill="#fff"/>
        <path d="M124.569 98.843c.078-.232.078-.27.194-.696.232-1.084.58-1.664 1.16-2.128.465-.348.581-.426 1.78-.851.812-.27 1.122-.542 1.238-1.083.155-.735-.232-1.277-1.122-1.47-.658-.155-1.199 0-1.586.386-.194.233-.31.426-.464.89l-2.979-1.006c.387-1.083.774-1.624 1.47-2.166 1.083-.812 2.514-1.044 4.217-.658 2.708.62 4.1 2.36 3.597 4.488-.232.928-.657 1.586-1.431 2.05-.425.271-.619.349-2.089.89-.696.27-1.044.619-1.199 1.354-.039.194-.078.348-.078.62l-2.708-.62zm2.979 2.05-.657 2.941-3.637-.658.658-2.94 3.636.657z" fill="#F4CC22"/>
        <path d="M59.112 91.3c0-2.825-2.205-5.107-4.835-4.953-2.399.117-4.333 2.283-4.372 4.875 0 .967.232 1.857.658 2.63l3.443 6.074a.587.587 0 0 0 1.044 0l3.443-6.073a5.533 5.533 0 0 0 .62-2.554z" fill="#036EB7"/>
        <path d="M54.509 92.885a1.934 1.934 0 1 0 0-3.868 1.934 1.934 0 0 0 0 3.868z" fill="#fff"/>
    </g>
    <defs>
        <clipPath id="h6acjwpzoa">
            <rect width="159" height="159" rx="6" fill="#fff"/>
        </clipPath>
    </defs>
</svg>
