<svg width="229" height="64" viewBox="0 0 229 64" fill="none" xmlns="http://www.w3.org/2000/svg">
    <g clip-path="url(#lcn3f1jp1a)">
        <path d="M229.058.059h-229v64h229v-64z" fill="#000"/>
        <path d="M216.226 3.435c.495.176.291.94.844 1.174.145.382.262.852-.058 1.233-.466.235-.408.94-.844 1.175-.466.91-1.048 1.555-1.455 2.466 0 .176.145.293.262.322.495-.176 1.047-.176 1.455-.616.465-.059.902-.176 1.367-.235.553-.293 1.019.059 1.572.118.145.264.465.117.494.44-.611.117-1.164-.059-1.658.235-.611.176-1.164.381-1.717.616-.291.176-.495.5-.96.382-.088.059-.204.294-.291.176-.757.176-1.455.617-2.124 1.057-.466 0-.67.382-1.077.44-.087.265-.349.235-.553.265-.553-.177-.407-.881-.465-1.41.145-.44.494-.792.843-.94.699-.85 1.659-1.29 2.27-2.23.349-.617.815-1.116 1.018-1.732.553-.5.466-1.292.844-1.85-.058-.499-.262-1.057-.291-1.497.32-.382.379.176.524.41zM210.29 3.435c.058.293.262.558.466.793-.059.381-.204.792-.611.91-.35.44-.844.675-1.164 1.115-.553.059-.873.734-1.455.675 0-.322.349-.557.407-.88.291-.176.204-.558.291-.852.233-.323-.145-.792.146-1.115.087-.323-.204-.44-.35-.675h-.058c.611-.265 1.397-.265 1.979.176.087-.06.175-.206.349-.147zM210.174 8.778c.087.235.553.323.262.675-.262-.117-.495.059-.699.118-.814.117-1.629.235-2.328.734-.145 0-.291-.323-.494-.118-.146.558-.699.323-1.019.793-.407.176-.873.235-1.105.499-.495.235-.961.558-1.513.616-.117-.117-.291-.176-.408-.058-.116.616-.64.616-1.018.91-.204-.235-.262.176-.466.117-.262.323-.611.382-.902.558-.291-.117-.495.323-.698.5-.262.293-.553.733-1.019.557-.203.44-.698.264-.96.616-.407-.234-.873-.058-1.309-.234l-.146-.235c.088-.118.349-.235.262-.44.407-.06.844-.294 1.222-.617.204 0 .291.235.553.117.291-.264.815-.176 1.048-.675 1.367-.44 2.473-1.732 3.986-2.055.757-.059 1.251-.617 2.008-.734.407-.117.756-.616 1.105-.734.204-.293.553-.235.815-.382.815.323 1.048-.675 1.775-.675.408-.117.64.382 1.048.147zM221.696 11.303c.35.293.699.734.699 1.233-.058.44-.699.44-.408.88-.261.382-.698.558-.814 1.116-.67.793-1.455 1.439-2.328 1.85-.262.44-.815.234-.96.734.203.792 1.018.616 1.454.939.699-.117 1.252.176 1.921.235.349.176.698.323 1.047.616.204.177.553.06.641.382.698.5 1.018 1.292 1.571 1.85.495.499.291 1.291.145 1.908-.407.323-.96.293-1.425.059-.611-.06-1.281.234-1.804-.118-.204 0-.466-.293-.699-.059.291-.499 1.048-.499 1.164-1.174.204-.117.291-.382.349-.675-.058-.382-.349-.734-.494-1.116-.35-.058-.815-.381-.961-.792-.087-.177-.349-.294-.494-.44-.611.175-.699-.5-1.251-.294a3.788 3.788 0 0 1-1.455-.734c0-.44.291-.793.494-1.116 0-.558.611-.44.699-.94.553-.557.553-1.555 1.164-2.172.087-.176.203-.323.145-.558-.145-.117-.145-.322-.087-.499.145-.234.349-.557.203-.851-.145-.176-.349-.323-.349-.558.262-.059.611.235.873-.059.378-.088.553.412.96.353zM207.555 12.595c.465.44.495 1.174.291 1.732-.204.176-.262.499-.146.792.553.294 1.106.675 1.659.94.466.616.407 1.497.349 2.29-.145.235-.145.499-.087.734-.611.616-.466 1.497-.96 2.113 0 1.057-.902 1.791-1.31 2.672-.407.616-1.047.558-1.6.675.145-.44-.349-.44-.466-.793-.32.06-.262-.323-.349-.499.146.06.407-.176.466 0 .058 0 .087 0 .087-.058-.204-.177.058-.177.145-.294.204 0 .408.059.466-.176.495-.176.902-.793 1.018-1.292.204-.117.35-.382.35-.734.291-.675.465-1.497.553-2.23-.059-.735-.699-1-1.106-1.41a.698.698 0 0 0-.757.44c-.203.675-.611 1.233-.96 1.791-.204.323-.611.44-.698.852-.262.176-.67.176-.757.616-.145.235 0 .675-.407.675 0-.117 0-.235-.117-.323-.262 0-.291.235-.465.323 0 .176.116.382-.058.5-.35.293-.815.38-1.193.498l-.204-.058c.204-.118.465-.294.495-.558.756-.294 1.018-1.174 1.716-1.556.146-.117.088-.323.088-.5.349-.616 1.047-.997 1.251-1.79.204-.44.553-.793.698-1.292-.291-.94-1.367-.675-1.862-1.409 0-.382-1.164-.617-.407-.998.349-.118.756.117 1.105 0 .553 0 1.019.293 1.513.323.553-.118.699-.793.815-1.292 0-.382-.204-.793-.116-1.233.407-.147.611.47.96.528zM216.226 12.917c.262.382.466.793.611 1.233-.145.177-.145.558-.407.617-.553.323-.466 1.116-1.048 1.35-.349.382-.902.382-.96.94-.145.499.262.998.087 1.497-.203.998-.058 2.114-.291 3.141.291.382-.407.676 0 .999-.058.176.059.234.088.293.465-.117.611-.675.96-.998l1.106-1.174c.407.058.465-.91.843-.382.059.382-.261.558-.291.851-.116.852-1.105 1.057-.96 1.967a8.788 8.788 0 0 0-1.658 2.173c.058.293-.146.44-.204.616-.146.06-.349.118-.553.06-.116-.295-.466-.441-.466-.794 0 0 .146 0 .146-.117-.116-.117-.146 0-.204.059 0-.44-.494-.5-.465-.998.291-.323.349-.91.669-1.233.116-.91.349-1.733.291-2.701.058-.06.204-.118.087-.235-.203-.118-.058-.44-.058-.734 0-.44-.087-.881-.349-1.292-.495-.323-1.019.176-1.397.323-.262.294-.669.323-.96.294-.146-.558.495-.676.698-1.116.204-.117.495-.235.553-.558.466-.235.815-.675 1.222-1.057.349-.381.466-.94.844-1.409.146-.675.844-1.116.669-1.908.204-.118.553.059.844.059l.553.234z" fill="#fff" stroke="#fff" stroke-width="1.062"/>
        <path d="M212.996 29.563c.291-.205.146-.41.233-.675.291-.147.436-.528.64-.793l.029-.146c.233-.294.349-.646.349-1.057.029-.558-.582-.558-.785-.998-.146-.088-.32-.03-.437-.206-.145.088-.349 0-.436.206-.117-.03-.204.088-.291.029-.117.117-.32.088-.437.147-.291-.206-.32.205-.523.235.087.146.203.323.203.557.088.44-.407.734-.407 1.175-.233.235-.087.675-.407.88 0 .118.116.088.174.147.029.03.029.147-.029.206-.204-.03-.32-.03-.524.088l.029.03c.291.293-.087.645-.174.968-.582-.088-.466.734-1.019.793 0 .352-.232.734-.232 1.115-.233.03-.233.235-.32.44a2.38 2.38 0 0 0-.233.353c-.117.528-.553.763-.844 1.204 0 .587-.611.88-.96 1.203.203.44-.35.587-.466.91.029.411-.32.558-.465.881-.204 0-.35.117-.524.206.087.146-.088.234-.029.352-.175.205-.291.587-.611.558-.146.088-.117.293-.233.352 0 .352-.233.675-.553.851-.407.206-.553.646-.844.97-.291.029-.291.293-.436.469-.408.088-.524.528-.728.793.088.205-.145.322-.145.47-.146.205-.408.351-.466.645-.087.088 0 .206-.116.235 0 .088-.029.147.029.206.087-.206.349-.118.465-.235.291-.294.466-.558.786-.793.64-.147.669-1.116 1.397-1.233.32-.088.233-.47.436-.734.408-.117.466-.793.99-.851.203-.294.552-.353.756-.646.117-.088.175-.294.32-.294.204-.293.291-.646.553-.851.029-.47.437-.734.669-1.087.437 0 .553-.44.728-.763.145-.205.465-.293.524-.528.203-.235.32-.587.64-.734 0-.352.407-.529.436-.852.204-.088.32-.293.524-.44.087-.205.174-.528.436-.558.32-.146.35-.528.35-.851.029-.44.552-.558.523-.998l.902-.734c.088-.176.379-.323.553-.617zM227.807 42.04c-.582.353-.582-.763-1.193-.587-.349 0-.757-.088-1.106-.235-.291 0-.553-.146-.844-.293-.203.088-.291-.235-.465-.206-.233-.088-.524-.088-.669-.323-.32-.029-.553-.205-.873-.147-.349-.41-.902-.41-1.281-.763-.436.03-.611-.528-1.076-.44-.233-.03-.233-.47-.466-.411-.349.117-.436-.294-.64-.44-.32-.089-.64-.294-.756-.617-.291-.117-.641-.206-.786-.47-.32.088-.32-.323-.553-.323-.407-.323-.844-.557-1.164-.968-.582-.235-.698-.91-1.338-.999-.291-.41-.844-.587-1.106-.998-.407.118-.553-.352-.873-.44-.087-.206-.349-.206-.466-.03-.203.353.117.676.291.999.437.235.786.734 1.193 1.057.117.41.582.47.728.792.029.088.116.235.233.147.029.088.116.117.145.206.233.087.32.352.553.44.145.41.669.587.96.91.175 0 .175.117.291.205.029.206.146.44.408.5.116.117.261.146.261.322.35.323.757.646.99.999.116.117.291.41.523.293.437.44.844.793 1.339 1.175.145.029.349.029.436.234.291.088.466.294.757.411.087.206.145.411.349.47.146.411.611.47.873.734.146.03.349 0 .466.117.116.323.523.323.756.47.349-.235.728-.587 1.164-.675.291.294.466-.117.786.03.32-.03.436-.441.844-.324.203-.117.349-.41.64-.41.233.146.524 0 .727.029.175-.118.32-.206.408-.323-.117-.176-.32-.118-.466-.118z" fill="#fff" stroke="#fff" stroke-width="1.062"/>
        <path d="M213.374 42.686c.233-.117.524-.147.67-.44.262-.352-.291-.822.262-1.086.552.235.029.822.378 1.203.524 0 1.164.088 1.484-.323.058-.176-.117-.616.116-.822.204-.029.466 0 .437.265-.088.176-.088.47 0 .616.32.176.727.176 1.076.323.204-.264.291-.587.67-.646.349.294-.204.763.32 1.028.262.176.436-.059.64-.265.029-.322.203-.704.494-.822.291.177 0 .411 0 .617-.029.235-.523.352-.232.646-.175.117.029.205.116.235.466.029.757.675 1.251.44.349-.323.349-.94.815-1.028.378.617-.669.852-.495 1.468.291.177.495.529.873.5.379.146.931-.588.99.146.029.206-.466.675.058.881.204-.059.378-.176.611-.117.174.322-.175.47-.32.763.058.382.32.675.494.998.582.176.961-.41 1.455-.117-.145.616-.96.088-1.193.704.088.294.029.734.437.764.145-.03.349 0 .378.176-.058.352-.698.557-.378 1.027.378.675 1.338-.205 1.484.617-.349.264-1.048-.294-1.31.264.204.41-.261 1.321.553 1.262.349.03.786-.117 1.048.118a.294.294 0 0 1-.117.323c-.494.058-.873-.265-1.367-.059-.291.411-.204.969-.32 1.438-.058.734.931.5.989 1.087-.291.293-.873-.088-1.135.323.291.558-.582.558-.203 1.086.058.293.378.44.378.763-.466 0-.699-.646-1.193-.381-.204.205-.495.41-.437.763.146.293.699.352.495.675.611 1.086-.466-.147-.757-.117-.32-.03-.582.235-.727.499 0 .734.931 1.145.873 1.82-.815-.176-.698-1.497-1.63-1.38-.32.323-.727.44-.989.822.029.617.495 1.086.495 1.703-.146.147-.32.117-.378-.059-.291-.44-.146-1.203-.612-1.438-1.163-.265-.756 2.113-1.949.822-.32-.03-.437.264-.553.499.058.264.116.616.058.88a.428.428 0 0 1-.378 0c-.058-.352.116-1.027-.146-1.32-.611-.294-1.28-.03-1.804.264-.64.44.088 1.233-.494 1.702-.204.059-.349-.058-.379-.264 0-.558.844-.998.262-1.556-.582-.176-.989-.851-1.687-.499-.262.264-.379.587-.553.88-.175-.087-.204-.175-.378-.322.203-.529-.408-.675-.204-1.204-.524-.235-.815-.822-1.368-.763-.291-.03-.582-.235-.873-.059-.174.352-.582.323-.814.323.087-.499.843-.763.378-1.262-.204-.03-.437.147-.611 0 .465-.47.233-1.087-.117-1.498-.116-.205-.407-.146-.552-.058-.291.117-.553.616-.873.44-.117-.088-.088-.264 0-.382.32-.352 1.105-.44.814-1.203.029-.235-.087-.587-.116-.88-.146-.265-.495-.265-.815-.265a1.351 1.351 0 0 1-1.076.323v-.264c.523-.235 1.164-.206 1.629-.558.087-.5-.174-.852-.436-1.204-.379-.088-.67.206-.961-.117-.058-.206.117-.44.32-.44.262.029.466-.03.641-.265 0-.352.232-.704.058-1.057a1.27 1.27 0 0 1-.32-.44c.087-.294-.437-.529-.495-.764-.087-.293.291-.205.437-.322.32.205.552-.118.814-.176.117-.382-.698-.734-.058-.94.058.206.146-.147.204.059.524.03.553-.587.669-.94.058-.47-.873-.616-.436-1.145.494-.352 1.367.265 1.425-.616-.145-.235-.552-.352-.436-.705.145-.264.349 0 .495 0 .058.118.145.206.261.323.408-.059.728-.323.99-.558.087-.616-.553-.792-.699-1.262.059-.147.291-.147.379-.059.407.323.698 1.204 1.367.675.379-.234.902-.264 1.135-.675-.058-.763-.582-1.32-.756-2.025.058-.177.32-.177.378 0 .291.528.32 1.32 1.076 1.614z" fill="#C7161E"/>
        <path d="M214.597 48.44h-3.841v-.968h1.542l-.204-.588c-.087-.234-.204-.44-.291-.616l1.048-.147c.174.294.32.675.465 1.233 0 .03 0 .059.029.118h1.252v.968zm-3.579.764h3.404v.91h-3.404v-.91zm0 1.702h3.404v.881h-3.404v-.88zm.029 1.82h3.317v3.964h-.96v-.529h-1.368v.646h-.989v-4.08zm2.357.881h-1.368v1.674h1.368v-1.674zm2.677-.822c-.175 1.35-.379 2.437-.641 3.2l-1.018-.44c.291-.734.524-1.732.698-2.995l.961.235zm-1.106-1.879v-.998h2.415V48.44h-2.502v-.998h2.502v-1.35h1.077v1.35h2.851v.998h-2.851v1.468h2.618v.97h-6.11v.028zm2.415 1.556v2.907c.029.176.175.264.407.264h.32c.204 0 .35-.059.437-.147.058-.088.145-.587.204-1.468l.96.323c-.058 1.057-.204 1.674-.437 1.88-.233.205-.611.322-1.135.322h-.494c-.437 0-.757-.088-.96-.294-.204-.205-.291-.557-.291-1.056v-2.76h.989v.03zm1.164.676a8.545 8.545 0 0 0-1.048-.822l-.989-.676.553-.645c.495.264 1.106.616 1.746 1.086.087.058.203.146.32.235l-.582.822zm1.775 2.642c-.058-.235-.087-.411-.117-.558-.261-1.174-.523-1.996-.814-2.495l.931-.323c.262.616.436 1.086.524 1.468l.465 1.526-.989.382z" fill="#fff"/>
        <path d="M8.73 10.98H.377V3.2h26.363v7.78h-8.875V42.45H8.73V10.98z" fill="#B3ADA9"/>
        <path d="M26.304 3.2H42.6c6.082 0 11.057 3.141 11.057 9.894 0 5.225-2.153 8.719-6.576 9.893v.118c2.94.91 3.143 3.875 4.86 8.66l3.346 10.686H45.77l-1.979-7.075c-1.862-6.752-3.055-8.425-6.43-8.425h-1.92v15.53h-9.138V3.2zm9.137 16.323h2.415c2.94 0 6.664-.117 6.664-4.55 0-3.64-3.201-4.316-6.664-4.316h-2.415v8.866zM82.434 3.2h9.719l8.962 30.826h.087L108.884 3.2h9.37l-11.698 39.251h-11.29L82.434 3.2zM118.283 3.2h24.5v7.427h-15.364v8.103h12.542v7.428h-12.542v8.25h15.568v8.043h-24.704V3.2zM147.09 3.2h24.558v7.34h-15.276v8.337h12.075v7.31h-12.075v8.396h15.829v7.634H147.09V3.2z" fill="#B3ADA9"/>
        <path d="M79.96 42.451h10.01L76.79 3.2H65.585L52.58 42.451h9.282l9.224-31.148h.087l8.788 31.148zM171.037 3.2h17.051c6.198 0 11.232 3.141 11.232 9.835 0 5.196-1.862 8.484-6.372 9.659v.117c2.997.88 2.88 4.022 4.626 8.749l3.492 10.598h-9.922l-1.892-7.046c-1.862-6.664-3.084-8.338-6.518-8.338h-1.949v15.413h-9.748V3.2zm9.748 16.206h2.444c2.997 0 6.809-.118 6.809-4.522 0-3.64-3.259-4.286-6.809-4.286h-2.444v8.807z" fill="#B3ADA9"/>
        <path d="M142.55 3.2h6.344v50.349h13.123v6.546H142.55V3.2z" fill="#C7161E"/>
        <path d="M204.587 59.567c-1.717.587-3.957.91-5.82.91-6.634 0-9.107-3.728-9.107-8.69 0-5.079 3.375-8.69 8.438-8.69 5.645 0 7.973 3.787 7.973 8.25v1.057h-13.705c0 3.523 2.269 6.341 6.605 6.341 1.804 0 4.423-.616 5.616-1.233v2.055zm-1.222-8.954c0-2.907-1.426-5.754-5.092-5.754-3.638 0-5.878 3.024-5.878 5.754h10.97z" fill="#fff"/>
        <path d="m182.996 51.347-6.372-8.162h3.055l4.743 6.518 5.092-6.4h2.823l-6.46 8.044 6.867 8.778h-3.055l-5.267-7.163-5.587 7.163h-2.88l7.041-8.778z" fill="#fff"/>
        <path d="M176.333 56.22c0 1.263 0 2.584.145 3.905h-2.386V57.16h-.087c-.815 1.497-2.328 3.346-6.489 3.346-4.946 0-6.838-2.73-6.838-6.4V43.244h2.474v10.334c0 3.141 1.338 5.138 4.743 5.138 4.51 0 5.936-3.288 5.936-6.048v-9.541h2.473V56.22h.029zM22.202 49.644l-.379.44h-6.227c.466 1.703 1.252 3.024 2.27 3.993 1.018 1.057 2.56 1.938 4.598 2.672v.381c-.96.558-1.455 1.586-1.543 3.142-1.891-1.233-3.171-2.466-3.899-3.729-.669-1.115-1.251-2.818-1.687-5.108-.146.822-.32 1.526-.524 2.114-.553 1.556-1.339 2.818-2.357 3.757-1.193 1.116-2.764 2.085-4.743 2.878l-.175-.235c2.095-1.88 3.55-3.64 4.278-5.285.407-.88.727-2.407.902-4.58h-4.83l-.204-.44h5.005c.087-1.262.116-2.73.145-4.374l2.939.235c.35.029.553.117.553.264 0 .147-.087.264-.262.323l-.378.176a55.205 55.205 0 0 1-.175 3.405h3.288l1.368-1.702 2.037 1.673zM34.917 45.475c.408.03.611.118.611.264 0 .206-.087.323-.29.411l-.408.206c-.029 1.145-.058 2.172-.145 3.112.465 1.556.96 2.7 1.484 3.464.814 1.262 2.502 2.554 5.063 3.875v.382c-.379.147-.757.411-1.135.822-.262.382-.524 1.086-.786 2.172-2.211-1.761-3.666-3.464-4.394-5.078a13.787 13.787 0 0 1-.756-2.584c-.087.352-.204.646-.291.94-.582 1.556-1.397 2.76-2.444 3.699-1.252 1.115-2.881 2.055-4.947 2.847l-.262-.323c2.183-1.85 3.667-3.581 4.423-5.225.698-1.38 1.048-4.492 1.106-9.277l3.171.293zM50.601 45.651c.32.06.495.206.495.382 0 .176-.204.294-.553.382a18.656 18.656 0 0 1-2.008 1.996h1.397l.873-.822 1.688 1.116c.145.117.261.234.261.323 0 .117-.116.234-.378.381v2.554c.204-.822.35-1.703.495-2.583.116-.94.29-2.32.436-4.169l3.026.675c.233.059.35.176.35.323 0 .147-.204.294-.611.44-.233.646-.466 1.204-.67 1.703h1.95l1.135-1.057a474.58 474.58 0 0 0 1.862 1.263c.116.088.204.235.204.352 0 .147-.088.235-.262.294l-.35.146c0 2.496-.116 4.844-.32 6.988-.203 1.702-.494 2.789-.902 3.258-.465.44-1.367.676-2.677.676 0-.97-.116-1.586-.378-1.82-.29-.353-.785-.588-1.426-.676v-.382h2.677c.35-1.966.524-4.844.553-8.63h-2.24c-.233.44-.408.85-.611 1.174-.204.322-.379.616-.553.88.64.323 1.135.734 1.513 1.175.407.587.61 1.203.61 1.79 0 .44-.115.764-.348 1.028-.291.294-.611.411-1.019.411-.262 0-.465-.088-.582-.264-.203-.235-.29-.646-.29-1.321v-.764c0-.47-.088-.968-.263-1.526a20.61 20.61 0 0 1-1.309 1.732v5.842l-2.357.323v-1.996h-1.571v1.937l-2.299.382v-11.92l1.513.53.466-2.966 2.473.44zm-.61 6.753v-3.582h-1.572v3.582h1.571zm0 4.403v-3.963h-1.572v3.963h1.571zM70.359 45.769c.436.293.64.646.64 1.115 0 .353-.117.676-.378.97a.928.928 0 0 1-.204.175h2.56l1.077-2.818 2.59.44c.32.06.494.206.494.382 0 .206-.203.352-.61.44-.64.47-1.456.998-2.474 1.586h2.735l1.193-1.439 1.746 1.439-.29.44h-6.111v1.527H75.8l1.164-1.439 1.746 1.439-.32.44h-5.093v1.879h3.55l1.193-1.439 1.746 1.439-.29.44H70.65l2.59.5c.29.117.465.234.465.352 0 .205-.204.352-.611.499-.087.293-.175.528-.262.763h3.754l1.192-1.497 1.805 1.497-.32.44h-6.431c.29.44.815.822 1.571 1.116 1.048.411 2.794.734 5.267.88v.382c-.553.323-.902 1.204-1.048 2.643-1.92-.47-3.317-1.057-4.248-1.791-.844-.646-1.455-1.615-1.862-2.936-.437.998-.96 1.761-1.542 2.26-1.164.999-3.114 1.791-5.878 2.35l-.175-.236c1.979-.998 3.405-2.025 4.22-3.17.29-.382.523-.881.727-1.468H65.12l-.175-.44h5.063c.146-.617.262-1.322.35-2.114h-5.413l-.203-.44h5.732v-1.88h-4.423l-.204-.44h4.598v-1.527H65.15l-.204-.44h4.074a.636.636 0 0 1-.145-.117c-.204-.206-.291-.47-.32-.793 0-.264-.088-.5-.233-.734-.088-.235-.32-.5-.728-.793l.117-.235c1.338-.088 2.211.06 2.648.353zM88.37 45.769c.291.088.437.176.437.293 0 .206-.204.323-.611.44l-.408 2.496h.757l1.018-1.115a68.489 68.489 0 0 0 1.775 1.32c.117.089.204.177.204.235 0 .118-.088.235-.233.323l-.262.177c-.058.763-.116 1.438-.233 2.084h2.095v-2.818l1.31.088 1.047-2.554h-4.393l-.204-.44h4.597l1.048-1.058 2.328 1.644a.627.627 0 0 1 .203.44c0 .148-.116.236-.32.236h-.64l-2.706 1.79.407.03c.379.058.553.117.553.235 0 .176-.203.381-.61.557v1.82h.29l1.31-1.643 1.92 1.644-.378.44h-3.172v5.96c0 .557-.204.968-.553 1.291-.436.353-1.25.529-2.444.529-.058-.88-.204-1.439-.407-1.732a2.822 2.822 0 0 0-1.077-.734v-.264h1.862v-5.08h-2.153c-.233 1.38-.553 2.525-.99 3.436l.088.088c.611.616.931 1.291.931 1.967 0 .293-.116.557-.29.822-.234.234-.437.381-.64.381-.728 0-1.252-.41-1.572-1.203-.99.939-2.328 1.702-4.045 2.26l-.116-.235c1.455-.969 2.531-2.143 3.171-3.64.03-.088.088-.176.117-.264-.233-.294-.466-.587-.728-.822l-.145.94-2.357-.294 1.047-6.4h-.93l-.175-.44h1.164l.61-3.759 2.503.529zm.204 3.699h-.902l-.873 5.108c.378.118.698.235 1.018.323.379-1.41.64-3.23.757-5.431zM106.12 47.002h.669l.815-.998 1.687 1.056c.146.089.233.206.233.265 0 .088-.087.205-.203.293h2.036V45.24l2.794.206c.32.03.524.117.524.293 0 .177-.233.323-.699.5v1.38h1.251l1.106-1.38 1.688 1.38-.32.44h-3.725v2.407h.175l1.193-1.438 1.746 1.438-.32.44h-6.955l-.203-.44h1.745v-2.407h-2.298v4.697h4.102v-1.673l2.707.205c.349.03.552.118.552.235 0 .176-.203.382-.611.558v.675h.204l.931-1.057 1.368 1.057-.233.44h-2.241v5.197c0 .557-.203.968-.611 1.291-.523.353-1.425.529-2.735.529-.087-.91-.262-1.468-.553-1.762-.378-.323-.843-.557-1.396-.734v-.264h2.677v-4.257h-4.103v4.052l-2.241.235v-1.057h-.727v1.057l-2.182.264V46.004l2.153.998zm.669 4.404v-3.964h-.727v3.964h.727zm0 4.58v-4.14h-.727v4.14h.727zm5.063-1.586c.233.294.378.617.378.969 0 .381-.116.704-.378.998-.291.294-.611.44-.989.44-.175 0-.32-.088-.466-.293-.145-.147-.233-.558-.262-1.175a3.48 3.48 0 0 0-.582-1.644l.204-.293c1.048.323 1.775.675 2.095.998zM131.26 45.534c.32.03.524.117.524.294 0 .146-.233.293-.698.499v5.343h2.91l1.367-1.762 2.066 1.762-.378.44h-4.365v5.02c0 .206.117.294.378.294h1.804c.291 0 .524-.206.612-.587 0 0 .145-.705.465-2.143h.378c0 1.32.088 2.084.233 2.29.117.205.437.381.931.47-.32 1.115-.582 1.79-.844 2.054a1.345 1.345 0 0 1-.902.352h-4.597c-.291 0-.524-.117-.757-.293-.232-.206-.32-.5-.32-.88v-6.548h-1.193c-.203 2.848-.582 4.756-1.193 5.637-.873 1.35-2.56 2.173-5.063 2.554l-.058-.381c1.455-.705 2.415-1.615 2.881-2.76.378-.91.611-2.584.727-5.05h-3.492l-.174-.47h5.965v-6.34l2.793.205zm-4.19 2.407c.32.47.524.998.524 1.586 0 .381-.116.733-.378 1.056-.291.323-.611.47-1.019.47-.32 0-.611-.147-.873-.44-.261-.235-.407-.793-.436-1.674-.116-.91-.466-1.702-1.048-2.348l.175-.323c1.571.587 2.59 1.145 3.055 1.673zm9.021-.616c.291.117.465.264.465.44s-.233.264-.669.294c-1.368 1.32-2.706 2.319-3.987 2.965l-.116-.264c.611-1.145 1.222-2.672 1.862-4.58l2.445 1.145z" fill="#fff"/>
    </g>
    <defs>
        <clipPath id="lcn3f1jp1a">
            <path fill="#fff" d="M0 0h229v64H0z"/>
        </clipPath>
    </defs>
</svg>
