<svg width="56" height="56" viewBox="0 0 56 56" fill="none" xmlns="http://www.w3.org/2000/svg">
    <path d="M23.847 12.552H35.84a.676.676 0 0 0 0-1.352H23.847a.676.676 0 0 0 0 1.352zM23.847 16.116H35.84a.676.676 0 0 0 0-1.352H23.847a.676.676 0 0 0 0 1.352z" fill="#1D2088"/>
    <path d="M48.083 13.243 41.67 6.83a3.111 3.111 0 0 0-2.214-.917H18.765a3.54 3.54 0 0 0-3.537 3.537v1.319a.676.676 0 0 0 1.353 0V9.45c0-1.203.98-2.183 2.184-2.183h20.692c.116 0 .23.011.34.033v5.618a2.2 2.2 0 0 0 2.199 2.199h5.618c.022.11.033.224.033.34v29.89a1.78 1.78 0 0 1-1.778 1.778h-21.98a.676.676 0 1 0 0 1.353h21.98A3.135 3.135 0 0 0 49 45.346V15.457c0-.836-.326-1.623-.917-2.214zm-6.933-.325V8.224l5.54 5.54h-4.694a.847.847 0 0 1-.846-.846z" fill="#1D2088"/>
    <path d="M24.745 44.78c.5.5 1.156.749 1.813.749.656 0 1.313-.25 1.812-.75.397-.396.647-.9.725-1.445.854.24 1.823.035 2.513-.655.387-.387.635-.877.72-1.407a2.566 2.566 0 0 0 3.327-2.49 2.551 2.551 0 0 0 1.982-.747v-.001c1-1 1-2.626 0-3.626l-1.42-1.422 4.5-4.5c1.416-1.416 1.628-2.79 2.095-3.825v-.002l1.272-3.298a1.22 1.22 0 0 0-.28-1.317 1.22 1.22 0 0 0-1.317-.28c-5.527 2.13-5.93 2.172-7.125 3.367l-2.505 2.505c-1.24-.923-2.714-1.352-4.125-1.184l-1.619.192a2.629 2.629 0 0 1-2.182-.756l-.883-.883.335-.335a2.723 2.723 0 0 0 0-3.853 2.724 2.724 0 0 0-3.353-.396l-6.696-6.696a2.277 2.277 0 0 0-3.221 0L3.668 19.17c-.89.89-.89 2.331 0 3.221l6.695 6.696a2.723 2.723 0 0 0 4.244 3.358l.364-.364.257.257v10.927l-2.359 2.359a3.79 3.79 0 0 0 0 5.355 3.79 3.79 0 0 0 5.355 0l6.36-6.36.161.16zm-3.077.841-1.243-1.242 1.96-1.96 1.241 1.244-1.958 1.958zm-2.012 2.012-3.441-3.442 1.055-1.055 3.442 3.442-1.056 1.055zm1.779-6.177-1.966 1.966-1.243-1.242 2.036-2.036c.365.45.754.877 1.173 1.312zM35.26 32.03l-1.243-1.243 4.552-4.552 1.242 1.24-.051.054-4.5 4.5zm7.466-10.908-.798 2.07-1.273-1.273 2.07-.797zm-3.452 1.33 2.122 2.121c-.36.903-.447 1.256-.763 1.812l-3.17-3.17c.555-.316.908-.402 1.811-.763zm-2.902 1.585 1.241 1.241-4.552 4.552-.512-.512c-.4-.4-.4-1.052 0-1.452 0 0 3.688-3.699 3.823-3.83zm-12.397.808a3.975 3.975 0 0 0 3.298 1.142l1.618-.192c1.01-.12 2.075.173 3.003.813l-.301.302a2.383 2.383 0 0 0-.001 3.364l5.09 5.09c.47.47.471 1.235.004 1.708l-.006.006-.007.007a1.21 1.21 0 0 1-1.717-.014c-.05-.064.297.292-5.225-5.232a.677.677 0 0 0-.957.956c1.29 1.29 5.116 5.112 5.212 5.217a1.208 1.208 0 0 1-.894 2.024c-.739 0-1.009-.58-1.484-.982l-3.972-3.972a.676.676 0 1 0-.956.956l3.971 3.972c.472.472.473 1.24 0 1.712a1.212 1.212 0 0 1-1.712 0l-3.398-3.397a.676.676 0 1 0-.956.956l2.828 2.829a1.212 1.212 0 0 1-1.712 1.713c-3.12-3.121-3.98-3.925-4.845-5.122-1.01-1.266-1.657-3.242-2.24-4.487-.463-1.076-1.103-1.43-2.233-2.634l-.455-.455 7.163-7.164.884.884zM11.71 31.488a1.373 1.373 0 0 1 0-1.94l1.44-1.439a.676.676 0 0 0-.957-.956l-.926.926-6.644-6.644a.925.925 0 0 1 0-1.308l7.445-7.445a.924.924 0 0 1 1.309 0l6.643 6.643-5.59 5.59a.676.676 0 1 0 .956.957l6.1-6.099a1.37 1.37 0 1 1 1.94 1.94l-9.776 9.775a1.373 1.373 0 0 1-1.94 0zm4.87 2.203c.137.155.526.439.792 1.057.834 1.812.984 2.651 2.076 4.295l-2.868 2.869V33.69zm.686 16.33a2.437 2.437 0 0 1-3.441 0 2.437 2.437 0 0 1 0-3.44l1.432-1.433 3.442 3.441-1.433 1.433z" fill="#1D2088"/>
</svg>
