<svg width="56" height="56" viewBox="0 0 56 56" fill="none" xmlns="http://www.w3.org/2000/svg">
    <path d="M31.15 26.815a.769.769 0 0 0 1.031.335c.046-.023 4.558-2.316 6.784-3.018a.767.767 0 0 0-.463-1.463c-2.345.741-6.827 3.018-7.017 3.115a.767.767 0 0 0-.335 1.03zM31.834 18.034a.765.765 0 0 0 .347-.084c.046-.023 4.558-2.315 6.784-3.018a.766.766 0 0 0-.463-1.463c-2.345.741-6.827 3.018-7.017 3.115a.767.767 0 0 0 .35 1.45z" fill="#1D2088"/>
    <path d="M50.233 16.5a.766.766 0 0 0-.766.767v29.9c0 1.268-1.032 2.3-2.3 2.3h-18.4v-1.764c1.117-.391 4.03-1.303 6.9-1.303 6.678 0 11.213 1.48 11.258 1.495a.766.766 0 0 0 1.008-.728V13.434c0-.36-.249-.671-.6-.749 0 0-.601-.134-1.628-.322a.768.768 0 0 0-.278 1.508c.392.072.72.135.973.186v32.091c-1.737-.455-5.595-1.281-10.733-1.281-3.34 0-6.622 1.097-7.637 1.469-.903-.399-3.63-1.47-6.93-1.47-5.28 0-9.631.872-11.5 1.314V14.027c1.53-.376 6.053-1.36 11.5-1.36 2.795 0 5.192.87 6.133 1.264V44.1a.767.767 0 0 0 1.162.656c.076-.045 7.672-4.582 14.414-6.83a.767.767 0 0 0 .524-.727V5.767a.766.766 0 0 0-1.036-.718c-6.134 2.3-12.341 6.163-12.403 6.201a.767.767 0 0 0 .812 1.3c.057-.036 5.457-3.395 11.094-5.662v29.764c-5.233 1.818-10.697 4.787-13.033 6.117V13.434a.767.767 0 0 0-.424-.686c-.132-.066-3.274-1.614-7.243-1.614-6.928 0-12.254 1.499-12.478 1.563a.766.766 0 0 0-.555.737v33.733a.77.77 0 0 0 .766.767c.07 0 .141-.01.21-.03.053-.015 5.355-1.504 12.057-1.504 2.803 0 5.198.873 6.133 1.265v1.802h-18.4a2.303 2.303 0 0 1-2.3-2.3v-29.9a.767.767 0 0 0-1.533 0v29.9A3.838 3.838 0 0 0 8.833 51h38.334A3.838 3.838 0 0 0 51 47.167v-29.9a.767.767 0 0 0-.767-.767z" fill="#1D2088"/>
    <path d="M31.15 22.215a.769.769 0 0 0 1.031.335c.046-.023 4.558-2.316 6.784-3.018a.767.767 0 0 0-.463-1.463c-2.345.741-6.827 3.018-7.017 3.115a.767.767 0 0 0-.335 1.03zM31.15 31.415a.769.769 0 0 0 1.031.335c.046-.023 4.558-2.315 6.784-3.018a.767.767 0 0 0-.463-1.463c-2.345.741-6.827 3.018-7.017 3.115a.767.767 0 0 0-.335 1.03zM23.575 19.228c-4.734-1.11-10.114.304-10.34.365a.767.767 0 0 0 .397 1.481c.051-.015 5.231-1.377 9.593-.353a.766.766 0 1 0 .35-1.493zM23.575 23.828c-4.734-1.11-10.114.305-10.34.365a.767.767 0 0 0 .397 1.481c.051-.014 5.231-1.377 9.593-.353a.766.766 0 1 0 .35-1.493zM31.15 36.015a.769.769 0 0 0 1.031.335c.046-.023 4.558-2.316 6.784-3.019a.767.767 0 0 0-.463-1.462c-2.345.741-6.827 3.018-7.017 3.115a.767.767 0 0 0-.335 1.03zM23.575 28.428c-4.734-1.11-10.114.303-10.34.365a.767.767 0 0 0 .397 1.481c.051-.015 5.231-1.377 9.593-.353a.766.766 0 1 0 .35-1.493zM23.575 37.628c-4.734-1.11-10.114.304-10.34.365a.767.767 0 0 0 .397 1.481c.051-.014 5.231-1.377 9.593-.353a.767.767 0 1 0 .35-1.493zM23.575 33.028c-4.734-1.11-10.114.304-10.34.365a.767.767 0 0 0 .397 1.481c.051-.014 5.231-1.377 9.593-.353a.766.766 0 1 0 .35-1.493z" fill="#1D2088"/>
</svg>
