<svg width="56" height="56" viewBox="0 0 56 56" fill="none" xmlns="http://www.w3.org/2000/svg">
    <path d="M41.09 29.536H15.728V10.718h25.364v18.818zM17.365 27.9h22.09V12.355h-22.09V27.9zM46 49.99H14.09c-2.29 0-4.09-1.8-4.09-4.09s1.8-4.09 4.09-4.09h31.092v1.635H14.09c-1.391 0-2.455 1.064-2.455 2.455 0 1.39 1.064 2.455 2.455 2.455H46v1.636z" fill="#1D2088"/>
    <path d="M45.182 49.99c-2.291 0-4.091-1.8-4.091-4.09 0-1.964 1.39-3.6 3.273-4.01V7.446H14.09c-1.391 0-2.455 1.064-2.455 2.455v36H10v-36c0-2.29 1.8-4.09 4.09-4.09H46v37.635h-.818c-1.391 0-2.455 1.064-2.455 2.455 0 1.39 1.064 2.455 2.455 2.455v1.636z" fill="#1D2088"/>
    <path d="M39.455 45.082h-3.273v1.636h3.273v-1.636zM34.545 45.082H14.091v1.636h20.454v-1.636zM17.364 31.173h-1.637v1.636h1.637v-1.636zM20.636 31.173H19v1.636h1.636v-1.636zM23.91 31.173h-1.637v1.636h1.636v-1.636z" fill="#1D2088"/>
    <path fill-rule="evenodd" clip-rule="evenodd" d="M33.229 19.098c.278.165.521.483.521.902 0 .42-.243.737-.521.902l-.007.005-6.375 3.699a1.063 1.063 0 0 1-1.597-.913v-7.385a1.063 1.063 0 0 1 1.597-.914l.006.004 6.376 3.7zM31.795 20l-5.045-2.927v5.854L31.795 20z" fill="#1D2088"/>
</svg>
