<svg width="56" height="56" viewBox="0 0 56 56" fill="none" xmlns="http://www.w3.org/2000/svg">
    <path d="M43.2 45h-1.6v1.6h1.6V45z" fill="#1D2088"/>
    <path fill-rule="evenodd" clip-rule="evenodd" d="M4.85 11.4A3.15 3.15 0 0 1 8 8.25h33.6a3.15 3.15 0 0 1 3.15 3.15v11.2h-1.5V11.4a1.65 1.65 0 0 0-1.65-1.65H8a1.65 1.65 0 0 0-1.65 1.65V37c0 .911.739 1.65 1.65 1.65h25.6v1.5H8A3.15 3.15 0 0 1 4.85 37V11.4zM33.6 46.55h-22v-1.5h22v1.5z" fill="#1D2088"/>
    <path fill-rule="evenodd" clip-rule="evenodd" d="m16.571 45.657 1.4-6.4 1.466.321-1.4 6.4-1.466-.32zM29.156 45.961l-1.473-6.4 1.462-.336 1.473 6.4-1.462.336zM33.6 36.15h-28v-1.5h28v1.5z" fill="#1D2088"/>
    <path fill-rule="evenodd" clip-rule="evenodd" d="M32.85 24.2a2.35 2.35 0 0 1 2.35-2.35h14.4a2.35 2.35 0 0 1 2.35 2.35v23.2a2.35 2.35 0 0 1-2.35 2.35H35.2a2.35 2.35 0 0 1-2.35-2.35V24.2zm2.35-.85a.85.85 0 0 0-.85.85v23.2c0 .47.381.85.85.85h14.4a.85.85 0 0 0 .85-.85V24.2a.85.85 0 0 0-.85-.85H35.2z" fill="#1D2088"/>
    <path fill-rule="evenodd" clip-rule="evenodd" d="M51.2 43.35H33.6v-1.5h17.6v1.5zM22.626 18.401c.187-.303.534-.55.974-.55.44 0 .787.247.974.55l.004.008 4.808 8.012c.073.126.164.323.164.58a1.15 1.15 0 0 1-1.15 1.15h-9.6A1.15 1.15 0 0 1 17.65 27c0-.257.09-.454.164-.58l.004-.006 4.808-8.014zm.974 1.293-4.174 6.956h8.348L23.6 19.694zM28.4 17.75c-.587 0-1.132.177-1.584.48l-.836-1.245a4.35 4.35 0 1 1 4.227 7.573l-.624-1.364A2.85 2.85 0 0 0 28.4 17.75z" fill="#1D2088"/>
</svg>
