<svg width="56" height="56" viewBox="0 0 56 56" fill="none" xmlns="http://www.w3.org/2000/svg">
    <path fill-rule="evenodd" clip-rule="evenodd" d="M21.722 12.372C12.301 14.692 6.505 24.317 8.8 33.882c.051.213.106.424.165.635l-1.444.409a20.378 20.378 0 0 1-.177-.685C4.86 23.886 11.13 13.435 21.372 10.913 31.614 8.391 41.92 14.76 44.404 25.116c.042.176.082.351.119.525l-1.465.321a19.62 19.62 0 0 0-.11-.488c-2.295-9.566-11.804-15.422-21.226-13.102zM10.556 38.409c3.764 6.792 11.647 10.502 19.47 8.576 4.59-1.13 8.316-3.991 10.67-7.736l1.265.796c-2.552 4.06-6.6 7.17-11.585 8.398-8.505 2.095-17.054-1.943-21.13-9.3l1.31-.734z" fill="#1D2088"/>
    <path fill-rule="evenodd" clip-rule="evenodd" d="M4.775 34.928c-.713.754-.814 1.236-.752 1.495.037.153.152.347.465.56.317.217.794.42 1.45.59 1.31.337 3.178.495 5.495.453 4.62-.084 10.859-.961 17.61-2.624.822-.202 1.632-.412 2.43-.627l.382 1.45c-.808.219-1.63.43-2.462.636-6.826 1.68-13.18 2.58-17.94 2.667-2.376.043-4.396-.115-5.895-.5-.748-.193-1.405-.453-1.917-.801-.517-.353-.926-.827-1.074-1.445-.25-1.038.325-2.04 1.124-2.884.828-.876 2.074-1.775 3.62-2.667l.742 1.302c-1.491.86-2.595 1.673-3.278 2.395zM43.6 16.163c-.275-.41-.563-.81-.865-1.2l1.186-.916c.322.417.63.845.924 1.283l-1.246.833zM40.38 12.37a21.967 21.967 0 0 0-13.376-5.898l.113-1.496a23.47 23.47 0 0 1 14.288 6.301l-1.026 1.093zM18.271 43.978a32.58 32.58 0 0 0 1.821-3.168l1.337.671a34.065 34.065 0 0 1-1.908 3.32c-.583.886-1.127 1.6-1.5 1.945l-1.012-1.101c.225-.209.683-.784 1.262-1.667z" fill="#1D2088"/>
    <path fill-rule="evenodd" clip-rule="evenodd" d="M10.42 23.69c-.472.216-.903.52-1.183.859l-1.158-.955c.463-.56 1.1-.986 1.712-1.267.604-.278 1.27-.456 1.82-.443 1.229.029 2.32.339 3.087 1.118.773.785 1.085 1.908 1.053 3.267-.01.404.025 1.203.222 1.878.098.338.222.588.354.743.116.135.222.183.354.187.633.015.893-.118 1.022-.22.156-.122.252-.293.436-.65l.008-.015c.164-.318.408-.79.89-1.143.507-.369 1.174-.541 2.066-.52.611.015 1.074.326 1.395.708.31.368.514.828.653 1.261.278.867.36 1.839.348 2.374-.041 1.768-.955 3.686-2.105 5.42l-1.25-.83c1.107-1.67 1.824-3.293 1.855-4.625a6.47 6.47 0 0 0-.276-1.881c-.11-.34-.24-.595-.373-.754-.122-.146-.21-.172-.281-.173-.688-.017-.993.12-1.147.232-.17.124-.276.298-.45.634l-.028.056c-.154.3-.384.748-.814 1.086-.486.382-1.127.56-1.983.54-.63-.016-1.117-.313-1.46-.713-.325-.381-.525-.857-.654-1.298-.258-.883-.292-1.854-.281-2.333.026-1.131-.24-1.79-.622-2.178-.387-.393-1.028-.647-2.053-.672-.246-.005-.678.086-1.158.306zM33.752 17.894c.846-.798 1.57-2.048 2.134-4.533l-1.46-.341c-.53 2.33-1.154 3.26-1.704 3.778-.276.26-.557.44-.896.658l-.048.031c-.351.225-.761.493-1.15.904-.455.478-.765 1.087-1.01 1.65-.114.262-.22.532-.32.785l-.025.063c-.11.276-.212.532-.319.77-.222.49-.422.801-.628.971-.155.128-.347.207-.713.122-.988-.23-1.499-.983-1.698-2.148-.201-1.183-.032-2.614.231-3.773.262-1.153.052-2.284-.332-3.307-.384-1.02-.96-1.984-1.494-2.822l-1.262.804c.525.824 1.03 1.678 1.354 2.54.323.86.448 1.677.273 2.445-.282 1.24-.496 2.894-.246 4.36.253 1.483 1.03 2.941 2.841 3.364.794.185 1.467.018 2.002-.423.484-.4.799-.98 1.038-1.509.123-.273.237-.56.346-.834l.023-.059c.102-.258.2-.505.304-.744.227-.523.453-.934.722-1.217m2.037-1.535c-.381.36-.77.608-1.093.815l1.093-.815zm-1.093.815-.069.044.069-.044zm-.069.044c-.346.222-.62.407-.875.676l.875-.676zM42.4 37.104l.556-.23-.577-1.393-.557.231.577 1.392zM36.664 33.171a1.638 1.638 0 0 0-.877-.895 1.608 1.608 0 0 0-1.166-.037 1.637 1.637 0 0 0-.843-.816c-.4-.17-.847-.171-1.245-.006l-.754.312a1.624 1.624 0 0 0-.878.881c-.165.4-.167.85-.005 1.252l1.99 4.925c.207.512.606.922 1.114 1.137a2.042 2.042 0 0 0 1.581.008l5.95-2.468-.577-1.392-5.95 2.468a.556.556 0 0 1-.734-.312l-1.99-4.925a.14.14 0 0 1 .076-.182l.754-.312a.122.122 0 0 1 .162.069l.536 1.327 1.31-.543a.122.122 0 0 1 .162.069l.756 1.87 1.384-.559-.756-1.87z" fill="#1D2088"/>
    <path fill-rule="evenodd" clip-rule="evenodd" d="m52.619 31.273-12.053 4.998.577 1.392 12.075-5.007c.36-.15.644-.436.794-.796a1.493 1.493 0 0 0-.255-1.555c-.37-.422-1.058-1.085-2.046-1.504-2.393-1.016-4.117-.598-5.34.007l-10.396 5.154.667 1.351L47.04 30.16c.898-.445 2.167-.792 4.098.028a4.275 4.275 0 0 1 1.482 1.086z" fill="#1D2088"/>
    <path fill-rule="evenodd" clip-rule="evenodd" d="M40.227 25.407a1.128 1.128 0 0 0-.598-1.468 1.1 1.1 0 0 0-.776-.032l-3.185 1.04a1.107 1.107 0 0 0-.676.629 1.124 1.124 0 0 0-.02.807l2.654 7.473 1.408-.499-2.523-7.1 1.31-.428-.407.414 1.069 1.06 1.513-1.546c.107-.108.181-.23.231-.35z" fill="#1D2088"/>
    <path fill-rule="evenodd" clip-rule="evenodd" d="m43.313 30.841-3.982-5.322-1.192.9 3.982 5.323 1.192-.9z" fill="#1D2088"/>
</svg>
