<svg width="56" height="56" viewBox="0 0 56 56" fill="none" xmlns="http://www.w3.org/2000/svg">
    <path fill-rule="evenodd" clip-rule="evenodd" d="M28 9.4c-8.334 0-15.099 1.14-17.454 1.827-.406.118-.931.461-1.505 1.172-.567.703-1.136 1.711-1.642 3.048-1.012 2.672-1.732 6.551-1.732 11.62 0 5.064.738 8.885 1.76 11.53 1.041 2.7 2.302 3.993 3.203 4.344.984.384 3.203.84 6.304 1.198 3.066.354 6.903.6 11.066.6 4.163 0 8-.246 11.066-.6 3.101-.357 5.32-.814 6.304-1.197.901-.352 2.162-1.645 3.204-4.345 1.02-2.645 1.76-6.466 1.76-11.53 0-5.069-.72-8.948-1.733-11.62-.506-1.337-1.075-2.345-1.642-3.048-.574-.71-1.099-1.054-1.505-1.172C43.099 10.54 36.334 9.4 28 9.4zM9.987 9.307C12.57 8.554 19.534 7.4 28 7.4c8.466 0 15.429 1.154 18.013 1.907.93.27 1.775.934 2.502 1.836.734.91 1.397 2.118 1.957 3.596 1.119 2.955 1.861 7.087 1.861 12.328 0 5.245-.763 9.321-1.893 12.25-1.11 2.873-2.649 4.827-4.343 5.488M9.987 9.307c-.93.27-1.775.934-2.502 1.836-.734.91-1.397 2.118-1.957 3.596-1.119 2.955-1.861 7.087-1.861 12.328 0 5.245.763 9.321 1.893 12.25 1.11 2.873 2.649 4.827 4.343 5.488 1.247.486 3.695.963 6.802 1.321 3.144.363 7.058.614 11.295.614s8.151-.251 11.295-.614c3.107-.358 5.555-.835 6.802-1.321" fill="#1D2088"/>
    <path fill-rule="evenodd" clip-rule="evenodd" d="M21.082 17.8a.482.482 0 0 0-.482.482v17.57a.482.482 0 0 0 .717.42l15.648-8.692a.588.588 0 0 0 0-1.026L21.315 17.86a.484.484 0 0 0-.234-.061zm-2.482.482a2.482 2.482 0 0 1 3.687-2.17l15.649 8.694a2.587 2.587 0 0 1 .001 4.521l-15.649 8.694a2.482 2.482 0 0 1-3.688-2.17V18.282zM11.267 28.933h-2v-1.866h2v1.866zM11.424 30.835c.045.523.097 1.036.158 1.538l-1.985.24a45.996 45.996 0 0 1-.165-1.607l1.992-.171zM12.023 34.51c.086.493.197 1.063.298 1.53l-1.955.422a44.64 44.64 0 0 1-.313-1.608l1.97-.345zM45.667 25.2v-1.867h2V25.2h-2zM45.509 21.432a43.909 43.909 0 0 0-.158-1.538l1.985-.24c.065.527.119 1.064.166 1.607l-1.993.17zM44.91 17.758a42.788 42.788 0 0 0-.298-1.532l1.955-.422c.106.494.223 1.09.314 1.608l-1.97.346z" fill="#1D2088"/>
</svg>
